<?xml version="1.0" standalone="no"?>
<!DOCTYPE svg PUBLIC "-//W3C//DTD SVG 20010904//EN"
 "http://www.w3.org/TR/2001/REC-SVG-20010904/DTD/svg10.dtd">
<svg version="1.0" xmlns="http://www.w3.org/2000/svg"
 width="1024.000000pt" height="1024.000000pt" viewBox="0 0 1024.000000 1024.000000"
 preserveAspectRatio="xMidYMid meet">
<metadata>
Created by potrace 1.14, written by Peter Selinger 2001-2017
</metadata>
<g transform="translate(0.000000,1024.000000) scale(0.100000,-0.100000)"
fill="#000000" stroke="none">
<path d="M9230 10230 c0 -5 5 -10 10 -10 6 0 10 5 10 10 0 6 -4 10 -10 10 -5
0 -10 -4 -10 -10z"/>
<path d="M9275 10230 c-3 -5 -4 -14 -1 -19 4 -5 0 -12 -6 -14 -10 -4 -10 -6 0
-6 6 -1 12 -8 12 -16 0 -8 5 -15 10 -15 6 0 10 -7 10 -15 0 -8 5 -15 10 -15
15 0 12 21 -6 42 -13 13 -14 21 -5 31 9 11 8 17 -3 26 -10 8 -16 9 -21 1z"/>
<path d="M9342 10228 c-8 -8 -9 -15 -1 -25 8 -9 8 -17 0 -27 -9 -10 -8 -15 4
-19 8 -4 14 -16 12 -28 -1 -12 4 -24 11 -26 8 -3 12 1 10 12 -4 21 24 40 46
32 21 -8 21 -27 0 -27 -32 0 -6 -25 37 -36 l44 -11 -53 -1 c-74 0 -76 -9 -3
-18 65 -7 94 -24 42 -24 -17 0 -31 -5 -31 -11 0 -8 15 -9 45 -5 29 5 45 4 45
-3 0 -6 7 -11 15 -11 9 0 12 -6 9 -15 -4 -8 -1 -15 6 -15 7 0 9 -8 5 -19 -6
-21 0 -24 65 -36 26 -5 31 -3 20 4 -8 6 -28 11 -44 11 -22 0 -27 3 -19 11 7 7
25 9 47 5 27 -5 36 -12 36 -26 0 -11 5 -20 10 -20 6 0 10 9 10 20 0 12 5 17
14 14 7 -3 13 -12 12 -20 -1 -11 12 -16 47 -19 27 -1 51 -6 55 -10 4 -4 -11
-6 -33 -4 -61 4 -109 0 -101 -8 8 -8 18 -10 109 -14 32 -1 60 -6 63 -11 3 -4
-4 -8 -15 -8 -11 0 -23 -5 -26 -10 -9 -14 4 -70 16 -70 14 0 11 28 -3 33 -7 2
-10 8 -6 12 10 10 78 -42 78 -59 0 -8 7 -19 15 -26 21 -18 21 13 -1 34 -8 9
-13 22 -11 29 4 9 6 9 6 0 2 -28 21 -11 21 18 0 18 4 28 10 24 6 -4 8 -24 6
-46 -3 -24 -1 -39 6 -39 6 0 8 -12 5 -29 -5 -25 -3 -29 13 -28 10 1 18 6 17
12 -1 5 15 11 36 13 23 2 37 -1 37 -8 0 -7 -8 -9 -20 -5 -11 4 -20 2 -20 -4 0
-6 16 -11 35 -11 19 0 35 -4 35 -8 0 -5 -24 -8 -52 -7 -30 1 -36 0 -15 -2 50
-6 47 -21 -5 -26 -32 -3 -27 -4 17 -4 43 0 63 5 72 16 11 14 12 14 13 1 0 -18
-37 -53 -44 -42 -2 4 -25 6 -50 4 -25 -2 -44 -8 -41 -13 3 -4 19 -6 34 -3 16
4 37 2 47 -4 14 -8 25 -6 44 8 21 15 27 15 37 4 8 -8 9 -15 3 -19 -6 -3 -10
-1 -10 4 0 6 -5 11 -11 11 -6 0 -9 -8 -7 -17 2 -10 8 -18 15 -18 6 0 15 -3 19
-7 13 -14 24 -8 24 13 0 16 4 19 20 14 20 -6 20 -2 20 324 l0 331 -443 0
c-319 -1 -447 -4 -455 -12z m68 -64 c0 -2 -11 -4 -25 -4 -18 0 -25 5 -25 20 0
20 1 20 25 4 14 -9 25 -18 25 -20z m80 7 c0 -9 -41 -23 -48 -16 -2 2 -1 8 3
14 8 13 45 15 45 2z m30 -51 c0 -5 -4 -10 -10 -10 -5 0 -10 5 -10 10 0 6 5 10
10 10 6 0 10 -4 10 -10z m93 -24 c3 -8 0 -17 -7 -19 -10 -4 -12 1 -9 14 6 23
9 24 16 5z m-78 -6 c3 -5 1 -10 -4 -10 -6 0 -11 5 -11 10 0 6 2 10 4 10 3 0 8
-4 11 -10z m35 0 c0 -5 -5 -10 -11 -10 -5 0 -7 5 -4 10 3 6 8 10 11 10 2 0 4
-4 4 -10z m23 -63 c9 -8 17 -18 17 -23 0 -4 -5 -3 -12 4 -7 7 -18 12 -25 12
-15 0 -53 31 -53 42 0 9 43 -12 73 -35z m45 -34 c-10 -2 -15 -10 -11 -19 3 -8
-1 -14 -11 -14 -9 0 -16 6 -16 14 0 15 16 25 40 24 11 0 10 -2 -2 -5z m102
-17 c0 -3 -4 -8 -10 -11 -5 -3 -10 -1 -10 4 0 6 5 11 10 11 6 0 10 -2 10 -4z
m17 -38 c-3 -8 -6 -5 -6 6 -1 11 2 17 5 13 3 -3 4 -12 1 -19z m183 -72 c0 -3
-4 -8 -10 -11 -5 -3 -10 -1 -10 4 0 6 5 11 10 11 6 0 10 -2 10 -4z m75 -26
c13 -6 15 -9 5 -9 -8 0 -22 4 -30 9 -18 12 -2 12 25 0z m-85 -22 c0 -19 -2
-20 -10 -8 -13 19 -13 30 0 30 6 0 10 -10 10 -22z m67 -20 c-3 -8 -6 -5 -6 6
-1 11 2 17 5 13 3 -3 4 -12 1 -19z m58 -28 c-3 -5 -21 -10 -38 -9 -31 1 -31 1
-7 9 36 11 52 11 45 0z m-31 -29 c3 -5 -1 -11 -9 -15 -9 -3 -15 0 -15 9 0 16
16 20 24 6z m71 -1 c3 -5 1 -10 -4 -10 -6 0 -11 5 -11 10 0 6 2 10 4 10 3 0 8
-4 11 -10z m32 -27 c-9 -9 -20 -13 -24 -9 -4 4 -1 11 7 16 25 16 35 11 17 -7z"/>
<path d="M9418 10033 c7 -3 16 -2 19 1 4 3 -2 6 -13 5 -11 0 -14 -3 -6 -6z"/>
<path d="M9510 9980 c-8 -5 -12 -12 -9 -15 8 -8 39 5 39 16 0 11 -11 11 -30
-1z"/>
<path d="M9648 9853 c6 -2 18 -2 25 0 6 3 1 5 -13 5 -14 0 -19 -2 -12 -5z"/>
<path d="M9768 9843 c6 -2 18 -2 25 0 6 3 1 5 -13 5 -14 0 -19 -2 -12 -5z"/>
<path d="M9745 9820 c3 -5 8 -10 11 -10 2 0 4 5 4 10 0 6 -5 10 -11 10 -5 0
-7 -4 -4 -10z"/>
<path d="M9780 9804 c0 -8 5 -12 10 -9 6 3 10 10 10 16 0 5 -4 9 -10 9 -5 0
-10 -7 -10 -16z"/>
<path d="M10224 9559 c-3 -6 -1 -16 5 -22 8 -8 11 -5 11 11 0 24 -5 28 -16 11z"/>
<path d="M10100 9542 c0 -12 19 -26 26 -19 2 2 -2 10 -11 17 -9 8 -15 8 -15 2z"/>
<path d="M10065 9530 c3 -5 8 -10 11 -10 2 0 4 5 4 10 0 6 -5 10 -11 10 -5 0
-7 -4 -4 -10z"/>
<path d="M10175 9530 c-3 -5 -1 -10 4 -10 6 0 11 5 11 10 0 6 -2 10 -4 10 -3
0 -8 -4 -11 -10z"/>
<path d="M10145 9520 c3 -5 8 -10 11 -10 2 0 4 5 4 10 0 6 -5 10 -11 10 -5 0
-7 -4 -4 -10z"/>
<path d="M10222 9501 c-11 -7 -11 -9 2 -14 10 -4 16 -1 16 8 0 17 -1 17 -18 6z"/>
<path d="M6058 9006 c-21 -28 -66 -81 -100 -117 -35 -36 -70 -74 -78 -84 -31
-38 25 2 66 47 79 89 160 196 153 202 -2 2 -21 -20 -41 -48z"/>
<path d="M9342 8993 c-18 -26 -27 -49 -38 -98 -3 -11 12 11 31 49 38 71 42 98
7 49z"/>
<path d="M5216 8889 c-3 -34 -6 -97 -6 -140 0 -43 -5 -89 -12 -103 -16 -37
-77 -62 -203 -86 -60 -11 -130 -25 -155 -30 -25 -6 -73 -15 -107 -22 -62 -11
-80 -23 -45 -31 9 -2 -2 -8 -28 -14 l-45 -11 40 -1 c41 -1 344 47 470 74 114
25 113 24 115 200 2 201 1 225 -9 225 -4 0 -11 -28 -15 -61z"/>
<path d="M9256 8830 c-16 -27 -42 -64 -57 -82 -16 -17 -26 -35 -23 -37 10 -11
118 143 112 159 -2 5 -16 -13 -32 -40z"/>
<path d="M4950 8810 c-9 -6 -10 -10 -3 -10 6 0 15 5 18 10 8 12 4 12 -15 0z"/>
<path d="M9170 8650 c0 -12 -9 -39 -20 -60 -11 -22 -16 -40 -10 -40 13 0 50
74 50 100 0 11 -4 20 -10 20 -5 0 -10 -9 -10 -20z"/>
<path d="M6828 8597 c-31 -12 -42 -41 -22 -57 21 -19 68 9 72 43 4 29 -5 32
-50 14z"/>
<path d="M8244 8541 c28 -31 46 -90 46 -151 0 -52 -40 -329 -70 -485 -9 -49
-23 -145 -23 -155 0 -3 -3 -15 -8 -27 -7 -18 -5 -21 9 -16 24 9 102 65 102 74
0 4 13 21 29 38 47 50 67 108 95 271 32 193 33 240 2 305 -32 67 -116 143
-174 158 -22 5 -23 4 -8 -12z"/>
<path d="M9116 8525 c-9 -26 -7 -32 5 -12 6 10 9 21 6 23 -2 3 -7 -2 -11 -11z"/>
<path d="M7930 8273 c-317 -52 -739 -132 -772 -146 l-27 -11 43 -26 c44 -26
146 -117 146 -131 0 -4 -14 -12 -30 -18 -37 -12 -110 -71 -110 -88 0 -7 -11
-15 -25 -19 -14 -3 -25 -12 -25 -19 0 -7 -7 -16 -16 -19 -8 -3 -12 -10 -9 -16
3 -6 -7 -18 -24 -28 -18 -9 -31 -25 -31 -36 0 -11 -3 -17 -6 -13 -3 3 -17 -4
-30 -16 -14 -12 -34 -30 -44 -39 -11 -10 -20 -15 -20 -10 0 4 -6 0 -13 -8 -7
-8 -33 -26 -58 -39 -35 -18 -54 -22 -82 -17 -37 7 -37 7 -27 -20 12 -30 97
-147 154 -209 43 -47 124 -161 109 -152 -6 4 -14 1 -16 -5 -5 -11 -73 54 -160
152 -7 8 -37 37 -67 64 -46 41 -55 45 -60 31 -5 -16 -9 -14 -29 11 -26 34
-130 126 -116 104 5 -8 41 -53 80 -100 97 -115 147 -189 139 -202 -4 -7 -3 -8
4 -4 7 4 12 3 12 -3 0 -27 -26 -15 -107 52 -48 41 -94 81 -102 90 -15 19 -36
23 -25 6 9 -15 -16 -30 -30 -18 -6 4 -29 23 -51 41 -45 37 -32 17 35 -55 48
-52 64 -76 80 -120 5 -16 13 -26 17 -24 5 3 8 -8 9 -23 2 -47 -30 -27 -157 97
l-67 65 -271 -267 c-149 -147 -268 -272 -265 -276 3 -5 1 -8 -5 -7 -15 4 -551
-533 -544 -545 3 -6 1 -7 -6 -3 -13 8 -83 -63 -75 -76 3 -5 -3 -11 -13 -15
-27 -9 -73 -55 -66 -66 3 -5 0 -8 -8 -5 -17 6 -55 -40 -52 -62 2 -10 1 -11 -3
-2 -5 10 -9 10 -20 1 -8 -6 -11 -16 -7 -22 3 -5 2 -7 -4 -4 -12 8 -77 -58 -70
-70 3 -5 2 -15 -4 -23 -7 -12 -9 -11 -9 4 0 18 -2 18 -25 -4 -13 -12 -22 -27
-18 -33 3 -6 1 -7 -4 -4 -16 10 -38 -22 -35 -49 3 -17 -2 -24 -13 -24 -12 0
-15 -5 -11 -16 4 -10 2 -14 -6 -11 -7 2 -12 10 -10 16 1 7 -8 4 -22 -6 -13
-10 -22 -20 -20 -22 2 -2 11 2 21 10 15 12 16 12 10 -3 -3 -9 -1 -19 6 -22 9
-3 9 -5 0 -5 -7 -1 -13 -6 -13 -12 0 -5 5 -7 10 -4 6 3 10 -1 10 -9 0 -9 -4
-16 -10 -16 -5 0 -9 -6 -7 -12 1 -7 -8 -14 -20 -16 -13 -2 -23 2 -23 8 0 7 6
10 14 7 15 -6 30 19 20 34 -9 16 -24 10 -17 -8 5 -12 2 -15 -10 -10 -12 4 -17
1 -17 -11 0 -15 -2 -15 -11 -2 -10 13 -10 13 -6 -1 3 -8 -3 -21 -14 -27 -10
-7 -19 -20 -18 -30 0 -12 3 -11 10 7 8 19 12 21 24 11 13 -11 14 -10 9 4 -8
20 5 20 31 -1 16 -13 17 -15 3 -10 -12 4 -18 1 -18 -8 0 -9 6 -12 15 -9 9 4
15 0 15 -10 0 -20 -10 -20 -36 -1 -20 13 -21 13 -16 -11 3 -18 9 -23 22 -19
14 4 19 0 22 -16 2 -15 11 -23 26 -24 13 -1 27 -7 31 -14 4 -6 15 -9 25 -5 14
6 14 1 -5 -30 -11 -20 -24 -36 -29 -36 -7 0 -25 -18 -129 -128 -23 -24 -41
-48 -41 -53 0 -6 -9 -8 -19 -4 -11 3 -22 1 -26 -5 -3 -5 1 -10 9 -10 14 0 14
-3 -2 -18 -9 -10 -38 -41 -64 -70 -47 -53 -65 -65 -54 -36 3 9 2 12 -5 9 -5
-4 -7 -15 -4 -25 3 -10 1 -21 -5 -25 -5 -3 -10 2 -11 12 0 10 -5 3 -10 -15 -5
-18 -14 -30 -19 -27 -8 5 -15 -54 -13 -112 1 -7 -3 -13 -8 -13 -5 0 -9 11 -9
24 0 37 -21 86 -37 86 -9 0 -11 -5 -6 -12 4 -7 13 -42 19 -78 l10 -65 67 3 66
3 6 -38 c4 -21 11 -60 16 -87 5 -27 8 -51 5 -53 -2 -2 -37 -30 -78 -61 -141
-107 -383 -296 -396 -309 -7 -7 -26 -20 -42 -30 -17 -9 -30 -21 -30 -25 0 -4
-37 19 -82 51 l-82 59 -43 -106 c-24 -59 -55 -131 -68 -160 -30 -63 -31 -74
-5 -90 22 -13 23 -13 185 134 l90 81 285 12 c157 7 317 19 355 26 199 37 437
219 586 449 109 167 192 427 239 746 24 164 27 169 138 286 170 181 314 327
305 311 -5 -10 -80 -91 -165 -180 -217 -227 -238 -252 -238 -290 0 -18 -3 -43
-6 -57 -4 -19 -1 -16 13 10 20 40 59 97 82 121 9 9 32 36 51 59 19 23 61 69
92 103 31 34 69 76 83 92 15 17 23 23 19 15 -4 -8 9 3 29 25 31 34 44 61 74
145 34 96 -50 -476 -116 -795 -11 -49 -27 -128 -36 -175 -23 -121 -92 -373
-117 -428 -56 -128 -84 -184 -130 -259 -27 -46 -55 -88 -61 -95 -7 -7 -24 -29
-37 -48 -48 -70 -117 -145 -213 -231 -119 -107 -213 -171 -317 -215 -159 -66
-140 -65 -1048 -73 -453 -5 -840 -5 -860 -1 -47 8 -81 27 -110 59 -22 23 -23
24 -13 3 7 -12 30 -35 53 -50 l42 -27 740 -3 c754 -3 976 4 1091 33 33 9 102
36 153 60 260 125 487 355 646 656 123 232 168 398 301 1109 24 129 51 264 59
300 l16 65 -6 -65 c-7 -72 -6 -64 -29 -210 -9 -58 -21 -132 -25 -165 -5 -33
-18 -103 -30 -155 -12 -52 -23 -108 -26 -125 -17 -103 -27 -153 -34 -175 -5
-14 -11 -45 -14 -70 -7 -66 -109 -395 -127 -410 -3 -3 -9 -18 -13 -33 -4 -16
-24 -54 -46 -85 -21 -31 -36 -60 -34 -64 3 -5 1 -8 -4 -8 -6 0 -14 -12 -20
-27 -5 -16 -37 -64 -71 -109 -33 -45 -61 -86 -61 -93 0 -7 -4 -9 -10 -6 -5 3
-10 -1 -10 -9 0 -9 -3 -15 -8 -13 -4 1 -8 -2 -9 -6 -1 -5 -37 -41 -79 -80 -43
-40 -91 -84 -106 -99 -15 -14 -28 -24 -28 -20 0 3 -12 -6 -27 -20 -16 -15 -73
-50 -128 -78 -191 -99 -285 -118 -590 -119 -121 -1 -317 -4 -435 -6 -118 -3
-379 -8 -580 -11 -201 -2 -376 -5 -389 -5 -30 -1 -21 -8 64 -53 79 -43 91 -51
55 -42 -19 5 -16 1 12 -17 39 -24 88 -72 88 -86 0 -4 9 -17 20 -29 l21 -22
-551 0 -550 0 0 -160 0 -160 156 0 c86 0 346 -4 577 -10 232 -5 618 -14 857
-20 239 -6 617 -15 840 -20 741 -19 1600 -40 2050 -50 245 -5 501 -13 569 -16
l123 -6 -7 -57 c-13 -111 -56 -307 -79 -357 -13 -28 -40 -70 -60 -92 -40 -43
-123 -91 -165 -94 -15 -1 17 -4 69 -7 127 -8 176 2 221 46 78 75 104 158 159
513 29 186 44 268 52 275 1 1 41 25 88 53 47 28 110 73 141 101 31 28 60 47
64 43 5 -4 5 -2 2 4 -4 7 16 30 48 55 30 24 52 49 50 56 -2 7 2 10 9 7 13 -5
73 64 68 79 -1 5 2 6 7 3 5 -4 36 26 68 66 l57 72 8 -39 c5 -22 6 -45 3 -53
-2 -7 0 -10 5 -7 6 3 10 0 10 -7 1 -7 12 11 26 40 23 47 30 54 50 51 11 -1 24
25 24 48 0 21 -4 22 -50 18 -54 -4 -65 5 -26 23 24 11 57 89 55 134 0 16 -9 6
-30 -37 -16 -33 -28 -64 -26 -69 2 -5 -27 -40 -63 -78 -64 -68 -86 -99 -60
-83 9 5 11 4 6 -4 -4 -6 -11 -9 -16 -6 -12 7 -33 -22 -24 -36 4 -7 3 -9 -3 -6
-5 3 -32 -17 -59 -45 -27 -27 -75 -72 -107 -99 -32 -27 -55 -49 -50 -49 4 0
-11 -18 -32 -41 -42 -42 -231 -176 -239 -168 -8 8 25 213 36 226 5 7 7 16 4
22 -5 8 13 148 30 234 3 15 18 42 32 60 21 25 22 28 4 13 -27 -23 -27 -23 -3
117 11 62 34 202 52 312 18 110 36 202 41 203 4 2 8 22 8 45 0 23 11 107 25
187 70 419 87 515 93 524 3 6 9 49 13 96 3 47 21 162 39 255 17 94 52 294 76
445 56 353 101 615 109 640 3 11 4 20 2 20 -3 0 -40 -16 -84 -36 -135 -62
-175 -79 -285 -124 -101 -40 -108 -45 -112 -74 -3 -17 -15 -94 -26 -171 -32
-212 -106 -656 -145 -875 -30 -169 -154 -892 -287 -1675 -44 -262 -55 -301
-91 -314 -14 -6 -199 -6 -458 -1 -239 5 -471 9 -517 10 -49 0 -81 4 -77 9 3 5
-7 12 -22 14 l-28 4 27 2 c32 1 124 83 113 101 -4 7 -1 10 10 8 10 -2 22 6 29
17 6 11 15 23 19 26 11 8 34 47 43 72 3 9 13 17 20 17 8 0 15 7 15 15 1 8 2
20 3 26 0 7 9 15 19 18 10 4 19 11 19 16 0 6 5 9 10 7 6 -2 8 6 5 18 -3 12 0
20 8 20 7 0 26 21 41 48 15 26 30 49 34 52 3 3 10 12 13 20 4 8 20 39 36 68
16 28 25 52 20 52 -16 0 -10 38 7 44 24 9 28 7 14 -9 -7 -9 -10 -18 -6 -22 10
-10 15 1 21 41 2 21 10 44 16 52 6 8 8 14 3 14 -5 0 4 11 19 24 20 17 29 35
30 60 1 20 5 36 9 36 3 0 9 14 13 30 4 18 13 30 23 30 13 0 13 3 -4 15 -16 12
-16 14 -2 9 12 -4 20 0 25 12 3 9 15 26 26 37 10 10 16 25 13 33 -7 17 43 84
62 84 6 0 12 5 12 11 0 6 -9 8 -20 4 -27 -8 -26 7 1 24 16 9 19 15 9 21 -9 6
-6 14 10 33 13 15 27 24 32 21 4 -3 8 4 8 15 0 11 -5 23 -10 26 -6 4 -8 11 -4
16 3 6 11 3 18 -7 12 -15 14 -13 21 17 4 19 8 41 9 49 0 8 11 19 24 25 21 10
26 22 22 58 -1 10 11 27 25 39 19 15 23 23 14 28 -17 11 -3 42 17 38 9 -2 19
3 21 10 4 10 -9 11 -56 7 l-61 -5 -55 57 c-30 31 -55 59 -55 61 0 2 25 -18 56
-44 48 -41 62 -48 93 -46 63 5 86 12 99 32 10 16 9 18 -3 14 -8 -4 -15 -2 -15
4 0 5 7 12 15 16 8 3 15 10 15 16 0 6 11 21 25 34 14 13 25 30 25 39 0 8 7 17
15 21 20 7 19 26 -1 26 -8 0 -12 5 -8 11 3 6 -4 21 -18 33 -13 11 -32 40 -42
63 -45 102 32 233 136 233 20 0 43 -6 50 -12 7 -7 27 -14 43 -16 24 -2 27 -1
15 8 -11 8 -8 9 15 4 17 -3 36 -7 43 -10 6 -2 12 1 12 6 0 6 -4 10 -8 10 -5 0
-16 6 -27 13 -17 13 -16 14 6 13 13 -1 28 -5 32 -11 5 -6 7 -4 5 5 -1 8 6 30
15 48 10 18 15 37 12 41 -3 5 5 7 17 4 22 -5 22 -5 4 9 -17 13 -17 16 -2 30
17 18 22 33 7 24 -5 -3 -12 1 -15 10 -5 12 -2 15 9 10 10 -3 18 1 21 12 3 9 9
24 13 32 5 8 7 25 5 37 -2 12 1 25 7 28 6 4 3 12 -8 22 -16 13 -16 14 -1 9 10
-3 20 -1 23 4 4 6 2 10 -4 10 -10 0 -9 25 2 36 11 12 8 42 -5 47 -7 3 -2 6 12
6 20 1 22 3 10 11 -13 9 -13 11 0 20 12 8 13 11 1 19 -10 6 -10 10 -1 16 9 6
9 9 -1 15 -9 6 -9 12 4 25 10 9 17 23 17 31 0 8 5 14 10 14 6 0 10 18 10 40 0
30 4 40 16 40 13 0 14 3 5 14 -9 11 -9 16 -1 21 7 4 10 16 7 26 -3 12 0 19 9
19 17 0 17 2 2 35 -8 18 -17 24 -29 20 -11 -4 -22 1 -28 14 -9 17 -8 18 11 13
15 -4 19 -2 13 8 -5 8 -20 10 -44 6 -25 -4 -31 -2 -21 4 21 14 18 13 -126 -19
-171 -39 -265 -49 -134 -15 52 13 120 32 150 41 63 19 55 17 100 27 56 13 63
24 32 51 -26 22 -26 49 0 27 10 -8 14 3 15 53 2 35 -1 66 -6 70 -5 3 -8 17 -5
31 3 14 1 24 -3 21 -85 -49 -277 -170 -378 -237 -71 -47 -154 -101 -182 -119
-39 -24 -55 -42 -61 -65 -7 -27 -13 -31 -43 -31 -25 0 -73 -24 -188 -93 -84
-51 -155 -91 -157 -90 -2 2 64 46 146 97 82 51 153 98 158 104 5 7 12 24 16
40 5 20 12 27 31 27 14 0 25 6 25 13 0 9 2 9 9 -1 6 -11 20 -6 62 19 43 26
318 208 413 273 18 12 16 14 -27 24 -26 7 -47 15 -47 18 0 6 70 -6 89 -16 8
-4 19 -3 25 2 6 5 37 25 69 44 52 32 57 39 53 64 -3 22 -1 27 11 23 12 -5 12
-7 1 -14 -10 -7 -11 -9 0 -9 7 0 10 -5 6 -12 -4 -6 -3 -8 4 -4 10 6 7 80 -5
99 -3 5 1 13 8 18 12 8 12 11 -1 19 -8 5 -24 10 -36 10 -11 0 -28 6 -38 13
-16 12 -10 17 58 51 42 20 74 41 71 47 -4 5 -8 9 -11 9 -3 0 -2 -5 2 -12 5 -8
2 -9 -10 -5 -10 4 -20 7 -23 7 -3 0 0 6 6 13 15 19 21 79 9 95 -7 8 -6 17 3
28 12 15 11 16 -11 9 -22 -7 -23 -6 -8 9 9 9 21 16 26 16 6 0 12 6 15 14 3 7
-45 -16 -106 -51 -62 -36 -153 -89 -203 -118 -106 -62 -280 -173 -344 -220
-25 -18 -101 -75 -170 -127 -115 -87 -180 -131 -140 -96 9 7 54 42 100 78 123
94 141 111 135 130 -3 10 4 28 15 41 17 20 21 22 30 9 5 -8 8 -20 5 -27 -2 -7
42 18 98 56 149 99 206 135 262 166 48 27 227 139 308 193 22 15 36 31 33 39
-3 7 -1 13 5 13 6 0 9 7 5 15 -3 8 2 21 10 30 9 8 12 15 7 15 -4 0 1 7 11 15
25 19 6 19 -42 0 l-37 -15 35 29 34 29 -26 38 c-14 22 -55 69 -92 106 l-66 66
0 59 c-1 74 -29 143 -104 253 l-58 85 29 7 c15 4 69 12 118 18 142 18 525 86
533 95 8 8 22 126 16 136 -5 9 -28 10 -74 2z m-480 -203 c-8 -5 -24 -9 -35 -9
-16 1 -16 2 5 9 35 11 48 11 30 0z m-67 -17 c-7 -2 -19 -2 -25 0 -7 3 -2 5 12
5 14 0 19 -2 13 -5z m-58 -13 c-28 -12 -45 -12 -45 0 0 6 15 10 33 9 27 0 29
-2 12 -9z m-285 -566 c0 -8 -5 -12 -10 -9 -6 4 -8 11 -5 16 9 14 15 11 15 -7z
m-361 -230 c22 -27 27 -44 14 -44 -11 1 -54 70 -43 70 5 0 18 -12 29 -26z m51
-64 c0 -5 -2 -10 -4 -10 -3 0 -8 5 -11 10 -3 6 -1 10 4 10 6 0 11 -4 11 -10z
m285 -60 c3 -5 2 -10 -4 -10 -5 0 -13 5 -16 10 -3 6 -2 10 4 10 5 0 13 -4 16
-10z m-705 -200 c0 -5 -7 -10 -16 -10 -8 0 -12 5 -9 10 3 6 10 10 16 10 5 0 9
-4 9 -10z m797 -92 c-3 -8 -6 -5 -6 6 -1 11 2 17 5 13 3 -3 4 -12 1 -19z
m-537 -34 c0 -8 -7 -14 -15 -14 -15 0 -21 21 -9 33 10 9 24 -2 24 -19z m-555
-23 c3 -5 1 -12 -5 -16 -5 -3 -10 1 -10 9 0 18 6 21 15 7z m1259 -80 c4 -5 -3
-7 -14 -4 -23 6 -26 13 -6 13 8 0 17 -4 20 -9z m223 -18 c-4 -3 1 -12 11 -20
15 -13 15 -13 -5 -4 -12 6 -30 8 -40 5 -16 -6 -15 -5 2 9 19 16 45 24 32 10z
m8 -43 c3 -5 1 -10 -4 -10 -6 0 -11 5 -11 10 0 6 2 10 4 10 3 0 8 -4 11 -10z
m15 -40 c0 -5 -2 -10 -4 -10 -3 0 -8 5 -11 10 -3 6 -1 10 4 10 6 0 11 -4 11
-10z m-900 -14 c0 -4 -185 -139 -230 -168 -14 -9 -36 -25 -49 -37 -24 -21 -41
-27 -41 -13 1 5 305 218 318 221 1 1 2 -1 2 -3z m-440 -16 c0 -5 -4 -10 -10
-10 -5 0 -10 5 -10 10 0 6 5 10 10 10 6 0 10 -4 10 -10z m-318 -82 c-7 -7 -12
-8 -12 -2 0 14 12 26 19 19 2 -3 -1 -11 -7 -17z m1658 2 c0 -5 -10 -10 -22
-10 -19 0 -20 2 -8 10 19 13 30 13 30 0z m-1486 -95 c-4 -8 -11 -15 -16 -15
-6 0 -5 6 2 15 7 8 14 15 16 15 2 0 1 -7 -2 -15z m1093 -31 c-3 -3 -12 -4 -19
-1 -8 3 -5 6 6 6 11 1 17 -2 13 -5z m-1529 -135 c-2 -6 -8 -10 -13 -10 -5 0
-11 4 -13 10 -2 6 4 11 13 11 9 0 15 -5 13 -11z m-258 -19 c0 -5 -5 -10 -11
-10 -5 0 -7 5 -4 10 3 6 8 10 11 10 2 0 4 -4 4 -10z m391 -33 c-10 -9 -11 -8
-5 6 3 10 9 15 12 12 3 -3 0 -11 -7 -18z m949 -37 c0 -5 -2 -10 -4 -10 -3 0
-8 5 -11 10 -3 6 -1 10 4 10 6 0 11 -4 11 -10z m-987 -55 c-3 -9 -8 -14 -10
-11 -3 3 -2 9 2 15 9 16 15 13 8 -4z m1200 -30 c13 -12 32 -13 134 -4 65 6
150 17 188 24 74 14 85 12 85 -11 0 -10 -12 -14 -42 -14 -24 0 -113 -5 -198
-12 -129 -10 -157 -15 -168 -30 -26 -36 -52 -42 -84 -18 -29 21 -33 22 -145
11 -64 -7 -118 -10 -120 -7 -4 4 45 11 161 22 63 6 73 10 102 41 34 36 50 36
87 -2z m-826 3 c-3 -8 -6 -5 -6 6 -1 11 2 17 5 13 3 -3 4 -12 1 -19z m1371
-23 c-9 -19 -14 -22 -25 -14 -18 16 -16 37 5 42 27 6 32 -2 20 -28z m-978 20
c0 -2 -10 -9 -22 -15 -22 -11 -22 -10 -4 4 21 17 26 19 26 11z m-820 -35 c0
-5 -2 -10 -4 -10 -3 0 -8 5 -11 10 -3 6 -1 10 4 10 6 0 11 -4 11 -10z m810
-32 c-36 -5 -77 -15 -92 -23 -28 -13 -43 -8 -30 11 15 23 43 29 114 25 l73 -4
-65 -9z m-1086 -23 c-6 -16 -24 -21 -24 -7 0 11 11 22 21 22 5 0 6 -7 3 -15z
m1891 5 c-27 -12 -35 -12 -35 0 0 6 12 10 28 9 24 0 25 -1 7 -9z m125 -10 c0
-5 -4 -10 -10 -10 -5 0 -10 5 -10 10 0 6 5 10 10 10 6 0 10 -4 10 -10z m-2143
-37 c-8 -7 -37 9 -31 19 3 5 12 4 20 -3 8 -6 13 -14 11 -16z m50 -30 c-15 -16
-17 -16 -17 -1 0 9 6 18 13 21 20 7 22 -2 4 -20z m1913 -32 c0 -5 -7 -11 -15
-15 -15 -5 -20 5 -8 17 9 10 23 9 23 -2z m-1980 -35 c0 -3 -4 -8 -10 -11 -5
-3 -10 -1 -10 4 0 6 5 11 10 11 6 0 10 -2 10 -4z m-87 -68 c4 -10 8 -9 16 2 5
8 13 11 16 8 10 -10 -2 -25 -26 -31 -11 -3 -18 -3 -15 0 3 3 -2 12 -12 19 -16
12 -16 13 0 14 9 0 19 -6 21 -12z m-73 -96 c0 -14 -88 -94 -93 -85 -3 5 2 15
13 23 10 7 16 19 13 27 -3 7 1 13 10 13 8 0 20 7 27 15 13 16 30 20 30 7z
m-185 -12 c3 -5 1 -10 -4 -10 -6 0 -11 5 -11 10 0 6 2 10 4 10 3 0 8 -4 11
-10z m465 0 c0 -5 -4 -10 -10 -10 -5 0 -10 5 -10 10 0 6 5 10 10 10 6 0 10 -4
10 -10z m1508 -127 c-16 -2 -40 -2 -55 0 -16 2 -3 4 27 4 30 0 43 -2 28 -4z
m93 -95 c27 -57 54 -107 60 -112 11 -12 12 -26 1 -26 -4 0 -15 17 -24 38 -9
20 -35 74 -57 120 -22 45 -38 82 -36 82 3 0 28 -46 56 -102z m-228 85 c-7 -2
-21 -2 -30 0 -10 3 -4 5 12 5 17 0 24 -2 18 -5z m-160 -10 c-7 -2 -19 -2 -25
0 -7 3 -2 5 12 5 14 0 19 -2 13 -5z m56 -169 l21 -35 -30 18 c-29 17 -37 33
-23 46 9 10 9 10 32 -29z m-1489 16 c0 -5 -5 -10 -11 -10 -5 0 -7 5 -4 10 3 6
8 10 11 10 2 0 4 -4 4 -10z m1638 -149 c3 -9 10 -20 16 -24 7 -5 4 -6 -7 -3
-10 3 -25 6 -33 6 -8 0 -14 5 -14 12 0 6 -7 20 -17 30 -15 17 -15 18 16 7 18
-6 35 -19 39 -28z m-1878 -10 c0 -6 -4 -13 -10 -16 -5 -3 -10 1 -10 9 0 9 5
16 10 16 6 0 10 -4 10 -9z m270 -36 c0 -16 -27 -32 -37 -21 -7 7 16 36 28 36
5 0 9 -7 9 -15z m-457 -150 c4 -8 3 -16 -1 -19 -13 -8 -35 11 -28 23 10 15 23
14 29 -4z m-53 -55 c0 -6 -25 -9 -57 -8 l-58 1 55 7 c30 4 56 7 58 8 1 1 2 -2
2 -8z m-123 -16 c-3 -3 -12 -4 -19 -1 -8 3 -5 6 6 6 11 1 17 -2 13 -5z m129
-23 c0 -11 -4 -17 -8 -15 -4 3 -8 12 -8 20 0 8 4 14 8 14 4 0 8 -9 8 -19z m6
-75 c2 -19 0 -32 -4 -30 -8 5 -12 64 -4 64 2 0 6 -15 8 -34z m2139 -87 c15
-28 -12 -59 -38 -43 -22 14 -25 42 -5 54 25 14 30 12 43 -11z m-1591 2 c0 -12
-20 -25 -27 -18 -7 7 6 27 18 27 5 0 9 -4 9 -9z m-433 -17 c-3 -3 -12 -4 -19
-1 -8 3 -5 6 6 6 11 1 17 -2 13 -5z m1933 -24 c0 -5 -4 -10 -10 -10 -5 0 -10
5 -10 10 0 6 5 10 10 10 6 0 10 -4 10 -10z m-40 -234 c0 -3 -4 -8 -10 -11 -5
-3 -10 -1 -10 4 0 6 5 11 10 11 6 0 10 -2 10 -4z m-20 -166 c0 -5 -4 -10 -10
-10 -5 0 -10 5 -10 10 0 6 5 10 10 10 6 0 10 -4 10 -10z m-121 -174 c10 -12 9
-14 -5 -12 -10 2 -20 8 -22 14 -5 17 13 15 27 -2z m-4105 -717 c-3 -5 -10 -7
-15 -3 -5 3 -7 10 -3 15 3 5 10 7 15 3 5 -3 7 -10 3 -15z m2816 -34 c0 -8 -4
-15 -10 -15 -5 0 -10 7 -10 15 0 8 5 15 10 15 6 0 10 -7 10 -15z m450 -76 c0
-24 -23 -21 -28 4 -2 10 3 17 12 17 10 0 16 -9 16 -21z m-2694 -16 c-10 -10
-19 5 -10 18 6 11 8 11 12 0 2 -7 1 -15 -2 -18z m-236 -9 c0 -14 -4 -23 -9
-20 -7 5 -8 23 -2 44 4 12 11 -3 11 -24z m3910 16 c0 -5 -4 -10 -10 -10 -5 0
-10 5 -10 10 0 6 5 10 10 10 6 0 10 -4 10 -10z m-3650 -30 c0 -5 -2 -10 -4
-10 -3 0 -8 5 -11 10 -3 6 -1 10 4 10 6 0 11 -4 11 -10z m360 -5 c0 -8 -4 -15
-10 -15 -5 0 -10 7 -10 15 0 8 5 15 10 15 6 0 10 -7 10 -15z"/>
<path d="M6830 6035 c-15 -18 -6 -45 14 -45 18 0 40 36 31 50 -9 15 -31 12
-45 -5z"/>
<path d="M2420 8212 c-79 -11 -168 -96 -195 -188 -10 -32 -21 -70 -25 -84 -5
-18 -13 -24 -29 -23 -28 3 -27 -5 2 -17 17 -7 18 -9 5 -9 -10 -1 -18 -6 -18
-12 0 -6 7 -8 16 -5 9 3 24 6 35 6 13 0 19 7 19 23 0 45 31 128 61 161 80 91
223 81 327 -24 58 -58 84 -112 90 -186 9 -122 -35 -218 -124 -270 -86 -51
-172 -33 -262 55 -29 28 -57 51 -63 51 -17 0 -9 29 11 40 28 15 42 54 30 85
-8 22 -13 24 -35 15 -43 -16 -76 -12 -82 10 -7 25 -12 25 -29 3 -12 -16 -12
-15 -8 7 5 20 3 22 -5 10 -42 -59 51 -293 147 -368 71 -56 101 -67 183 -66 64
0 86 5 133 29 69 35 123 92 161 170 25 50 30 73 32 154 2 70 0 91 -7 76 -8
-16 -9 -11 -6 23 5 56 -2 82 -21 75 -12 -5 -14 -1 -8 16 9 29 -27 102 -75 149
-69 67 -176 106 -260 94z m319 -462 c-21 -95 -106 -210 -154 -210 -12 0 -25
-4 -31 -9 -5 -5 -27 -6 -49 -1 -27 5 -32 8 -15 9 121 6 217 109 236 253 6 46
8 49 15 26 4 -15 3 -46 -2 -68z"/>
<path d="M6832 8069 c-24 -4 -62 -10 -85 -13 -103 -12 -328 -52 -437 -78 -15
-3 -50 -41 -50 -53 0 -11 86 0 280 35 254 46 261 48 305 85 22 19 38 34 35 34
-3 -1 -24 -5 -48 -10z"/>
<path d="M6165 7959 c-27 -4 -75 -12 -105 -18 -180 -33 -229 -41 -298 -47 -42
-3 -113 -12 -157 -20 -44 -8 -120 -21 -170 -29 -132 -20 -543 -94 -592 -107
-24 -6 -43 -15 -43 -21 0 -6 -3 -7 -7 -4 -3 4 -12 -1 -19 -11 -18 -23 -18 -37
0 -23 11 10 16 8 21 -8 5 -17 12 -20 33 -15 22 4 24 3 12 -6 -12 -9 -8 -10 20
-6 19 3 62 10 95 16 33 5 78 12 100 16 22 3 47 10 55 14 8 4 47 11 85 15 39 3
88 10 110 15 22 5 110 21 195 36 147 26 204 43 149 45 -22 1 -22 1 6 10 17 5
46 7 65 4 27 -5 32 -3 20 5 -11 9 -4 10 30 6 25 -4 40 -3 33 1 -6 5 82 25 195
47 251 46 233 42 253 69 16 22 16 23 -10 24 -14 0 -48 -3 -76 -8z m-548 -165
c-3 -3 -12 -4 -19 -1 -8 3 -5 6 6 6 11 1 17 -2 13 -5z m-497 -84 c0 -5 -2 -10
-4 -10 -3 0 -8 5 -11 10 -3 6 -1 10 4 10 6 0 11 -4 11 -10z m-305 -30 c3 -5 1
-10 -4 -10 -6 0 -11 5 -11 10 0 6 2 10 4 10 3 0 8 -4 11 -10z"/>
<path d="M6075 7874 c-33 -7 -69 -16 -80 -19 -11 -4 -40 -10 -65 -14 -43 -8
-43 -9 -10 -10 35 -1 237 42 248 53 9 9 -28 5 -93 -10z"/>
<path d="M5818 7793 c-16 -2 -28 -9 -28 -14 0 -11 7 -11 50 6 35 14 29 16 -22
8z"/>
<path d="M5748 7773 c6 -2 18 -2 25 0 6 3 1 5 -13 5 -14 0 -19 -2 -12 -5z"/>
<path d="M5708 7763 c7 -3 16 -2 19 1 4 3 -2 6 -13 5 -11 0 -14 -3 -6 -6z"/>
<path d="M5633 7753 c9 -2 25 -2 35 0 9 3 1 5 -18 5 -19 0 -27 -2 -17 -5z"/>
<path d="M8568 7720 c-14 -4 -32 -12 -40 -16 -7 -5 -18 -9 -23 -9 -17 0 -185
-97 -185 -107 0 -5 -5 -6 -10 -3 -6 3 -13 -1 -16 -9 -6 -15 -17 -22 -96 -63
-18 -9 -46 -25 -61 -36 -15 -10 -34 -16 -42 -13 -9 3 -12 0 -8 -10 3 -7 2 -22
-2 -31 -4 -10 -9 -26 -10 -36 -5 -50 -69 -47 -80 3 -4 16 -12 30 -18 30 -21 0
-88 -51 -96 -73 -13 -35 -76 -425 -70 -432 4 -3 33 10 65 28 171 98 209 124
212 144 2 16 13 22 45 27 59 9 130 47 144 77 11 23 197 159 306 223 18 11 50
33 72 51 22 17 53 36 68 43 30 13 46 40 30 51 -5 3 -16 15 -24 27 -22 33 -122
144 -128 143 -3 0 -18 -4 -33 -9z"/>
<path d="M4658 7703 c-10 -2 -18 -10 -18 -16 0 -7 -4 -6 -10 3 -14 22 -84 -18
-88 -50 -2 -17 0 -21 6 -12 6 9 18 11 37 6 16 -4 26 -3 22 2 -3 5 11 8 32 6
25 -3 41 1 50 12 8 9 19 16 25 16 6 0 4 -5 -4 -11 -13 -9 -13 -10 0 -6 17 4
21 26 7 45 -9 12 -27 14 -59 5z"/>
<path d="M8230 7690 c-36 -20 -74 -59 -66 -68 6 -6 71 34 104 64 30 29 11 31
-38 4z"/>
<path d="M4518 7685 c-4 -4 -83 -18 -175 -31 -250 -35 -243 -34 -368 -59 -88
-17 -147 -21 -164 -11 -10 7 -12 3 -6 -13 8 -26 -10 -28 -24 -3 -7 10 -14 13
-18 7 -11 -15 -75 -18 -84 -4 -4 6 -12 8 -18 5 -6 -4 -9 -12 -6 -17 14 -22
-30 -6 -62 22 -21 18 -43 29 -53 26 -13 -3 -16 0 -13 17 3 12 1 17 -4 10 -9
-13 -103 -15 -103 -2 0 4 9 8 21 8 11 0 17 5 14 10 -3 6 -17 7 -31 4 -14 -4
-24 -2 -24 5 0 6 -9 11 -20 11 -12 0 -20 -7 -20 -17 0 -15 -1 -15 -14 2 -8 12
-19 16 -31 12 -14 -6 -15 -10 -5 -22 14 -17 -1 -20 -17 -4 -6 6 -22 9 -35 6
-27 -7 -44 -5 -41 6 2 4 -2 7 -7 7 -6 0 -10 -4 -10 -10 0 -5 -17 -14 -38 -20
-43 -11 -111 -59 -112 -77 0 -7 -4 -14 -10 -14 -5 -1 -14 -2 -19 -3 -5 0 -13
-5 -18 -10 -5 -6 -2 -6 6 -1 11 6 13 4 8 -9 -4 -10 -7 -20 -7 -22 0 -2 -7 -4
-15 -4 -8 0 -15 -7 -15 -15 0 -9 -7 -18 -15 -21 -8 -4 -15 -12 -15 -18 0 -7
-11 -23 -24 -35 -33 -31 -39 -69 -12 -74 20 -4 20 -4 -1 -6 -17 -1 -24 -9 -28
-33 -3 -18 -8 -42 -10 -53 -2 -11 -4 -21 -5 -22 -2 -2 -3 -6 -4 -10 -1 -5 -5
-13 -9 -20 -4 -6 -4 -18 -1 -27 3 -9 2 -16 -4 -16 -21 0 -39 -289 -19 -302 7
-4 6 -12 -4 -24 -12 -15 -12 -16 8 -10 15 5 25 2 32 -11 10 -17 10 -17 11 2 0
11 -9 27 -20 35 -20 15 -26 30 -12 30 5 0 18 -9 30 -20 23 -21 30 -9 12 20
-10 16 6 43 21 34 5 -3 9 1 9 9 0 13 8 18 45 26 22 5 47 70 90 239 13 51 22
99 19 106 -3 8 -1 17 5 21 7 4 9 -1 5 -12 -4 -15 -3 -14 7 2 7 11 17 23 23 28
8 5 7 10 -3 16 -11 7 -10 10 5 14 41 11 372 76 414 81 14 2 70 11 125 21 55 9
107 18 115 19 71 11 167 31 175 37 6 4 23 6 37 5 15 -2 26 0 23 4 -2 3 25 7
62 8 36 1 69 4 73 7 4 3 70 14 146 25 77 11 148 23 159 27 11 3 29 7 40 8 24
2 47 46 43 81 -2 14 -6 23 -10 19z m-28 -77 c0 -9 4 -8 10 2 5 8 10 10 10 4 0
-16 -10 -23 -26 -17 -16 6 -19 23 -4 23 6 0 10 -6 10 -12z m-1013 -4 c-3 -3
-12 -4 -19 -1 -8 3 -5 6 6 6 11 1 17 -2 13 -5z m83 -15 c0 -5 5 -7 10 -4 6 3
10 -1 10 -9 0 -9 -6 -13 -14 -10 -17 7 -30 34 -16 34 6 0 10 -5 10 -11z m-471
-262 c-2 -1 -15 -11 -29 -22 l-25 -20 19 23 c11 12 24 22 29 22 6 0 8 -1 6 -3z
m-143 -374 c-2 -2 -11 0 -20 3 -14 5 -15 9 -5 15 12 7 34 -10 25 -18z"/>
<path d="M3480 7650 c0 -5 5 -10 10 -10 6 0 10 5 10 10 0 6 -4 10 -10 10 -5 0
-10 -4 -10 -10z"/>
<path d="M7943 7528 c-12 -6 -24 -17 -27 -24 -3 -9 7 -5 24 8 40 29 41 34 3
16z"/>
<path d="M3408 7373 c6 -2 18 -2 25 0 6 3 1 5 -13 5 -14 0 -19 -2 -12 -5z"/>
<path d="M3270 7356 c-56 -8 -66 -11 -40 -14 19 -1 64 4 100 12 77 17 46 18
-60 2z"/>
<path d="M3135 7330 c-3 -5 -1 -10 4 -10 6 0 11 5 11 10 0 6 -2 10 -4 10 -3 0
-8 -4 -11 -10z"/>
<path d="M3168 7333 c7 -3 16 -2 19 1 4 3 -2 6 -13 5 -11 0 -14 -3 -6 -6z"/>
<path d="M7585 7140 c-3 -5 -1 -10 4 -10 6 0 11 5 11 10 0 6 -2 10 -4 10 -3 0
-8 -4 -11 -10z"/>
<path d="M8093 7045 c-94 -52 -200 -112 -234 -133 l-63 -38 -28 -164 c-16 -89
-27 -165 -25 -166 7 -7 276 107 391 165 l71 37 21 114 c11 63 25 144 31 180 6
36 14 73 18 83 4 9 3 17 -1 16 -5 0 -86 -43 -181 -94z"/>
<path d="M7504 6945 c-24 -18 -7 -19 26 0 16 9 19 14 9 15 -8 0 -24 -7 -35
-15z"/>
<path d="M2851 6783 c-1 -12 -5 -24 -10 -28 -11 -6 -10 -45 1 -45 4 0 8 9 8
19 0 11 5 21 11 23 7 2 7 11 0 28 -9 24 -10 24 -10 3z"/>
<path d="M2810 6770 c0 -5 5 -10 10 -10 6 0 10 5 10 10 0 6 -4 10 -10 10 -5 0
-10 -4 -10 -10z"/>
<path d="M8275 6754 c-22 -7 -32 -13 -23 -13 11 -1 15 -6 12 -16 -5 -11 1 -15
24 -15 31 0 48 22 35 44 -6 10 -16 10 -48 0z"/>
<path d="M1875 6682 c-67 -40 -104 -79 -126 -133 -22 -54 -24 -147 -5 -191 8
-18 17 -45 20 -59 7 -31 82 -119 102 -119 9 0 13 -4 10 -9 -3 -5 13 -14 37
-20 23 -7 48 -15 55 -17 6 -3 12 -1 12 5 0 6 -17 19 -37 30 -53 27 -118 97
-143 153 -30 69 -35 126 -16 191 30 102 110 152 204 128 26 -7 56 -13 67 -13
54 -3 138 -148 139 -240 l0 -57 23 49 c26 57 23 98 -15 180 -43 94 -109 138
-217 147 -53 4 -66 1 -110 -25z"/>
<path d="M2200 6697 c0 -5 16 -28 36 -52 19 -24 36 -54 38 -67 1 -13 6 -30 11
-37 12 -21 14 -144 2 -159 -7 -10 -8 -16 0 -20 6 -4 8 -22 6 -39 -3 -18 -9
-30 -14 -27 -5 3 -9 -4 -9 -15 0 -12 -4 -21 -8 -21 -4 0 -16 -13 -25 -30 -10
-16 -15 -30 -12 -30 3 0 0 -6 -7 -14 -7 -8 -16 -12 -19 -10 -3 2 -18 -10 -32
-26 -27 -30 -87 -66 -87 -53 0 5 -4 3 -8 -4 -10 -15 -130 0 -176 22 l-31 15
33 -29 c19 -16 47 -32 64 -35 43 -9 150 -7 145 2 -3 4 7 8 21 9 15 0 28 6 30
12 2 6 10 11 17 11 23 0 104 102 124 156 40 106 37 230 -9 327 -20 42 -89 129
-90 114z"/>
<path d="M7630 6329 c0 -5 5 -7 10 -4 6 3 10 8 10 11 0 2 -4 4 -10 4 -5 0 -10
-5 -10 -11z"/>
<path d="M2712 6255 c-11 -12 -10 -15 3 -15 8 0 15 7 15 15 0 18 -2 18 -18 0z"/>
<path d="M2674 6209 c-15 -16 -16 -22 -5 -28 16 -10 6 -31 -15 -31 -8 0 -14
-5 -14 -11 0 -5 4 -8 9 -4 5 3 12 1 16 -5 3 -5 -1 -10 -9 -10 -8 0 -18 -9 -21
-20 -3 -11 -12 -20 -18 -20 -7 0 -3 -7 7 -15 17 -13 17 -15 3 -15 -13 0 -15
-7 -12 -35 3 -24 1 -37 -9 -41 -7 -3 -12 -16 -10 -30 2 -21 -1 -24 -19 -20
-12 3 -17 3 -11 0 12 -5 5 -38 -18 -90 -6 -12 -11 -33 -11 -48 -1 -14 -4 -26
-7 -26 -3 0 -7 -15 -8 -32 -1 -20 -10 -39 -22 -47 -11 -7 -20 -25 -21 -40 l0
-26 -10 25 -10 25 -13 -23 c-6 -12 -15 -19 -19 -16 -12 12 -8 32 9 48 8 9 11
16 5 16 -5 0 -17 -7 -25 -16 -11 -10 -16 -11 -16 -3 0 7 -2 10 -5 8 -2 -3 1
-22 7 -42 8 -27 17 -37 32 -38 17 0 16 -2 -6 -11 -27 -9 -39 -28 -18 -28 6 0
10 -4 10 -10 0 -5 -4 -10 -9 -10 -13 0 -25 39 -23 73 1 15 -2 27 -7 27 -5 0
-7 -10 -3 -22 4 -16 2 -19 -8 -13 -8 5 -11 4 -6 -3 9 -16 -5 -93 -16 -86 -6 4
-8 17 -5 30 2 13 0 21 -4 18 -5 -3 -9 -22 -10 -42 0 -28 -2 -32 -8 -17 -8 20
-10 14 -27 -74 -2 -8 -6 -26 -10 -40 -4 -14 -7 -29 -6 -32 0 -3 -5 -41 -13
-84 -7 -43 -11 -84 -8 -91 3 -8 1 -14 -4 -14 -5 0 -9 -8 -10 -17 -1 -10 -13
-61 -27 -113 -48 -185 -80 -318 -116 -479 l-20 -94 27 -31 c28 -31 28 -31 2
-8 l-27 24 -22 -94 c-12 -51 -44 -196 -70 -323 -27 -126 -63 -289 -79 -362
-17 -72 -31 -136 -31 -141 0 -7 67 -10 194 -9 l193 2 42 205 c23 113 71 336
106 495 75 338 161 738 168 778 5 34 -16 36 -71 7 l-37 -20 -20 25 c-19 23
-27 25 -115 27 -52 1 -72 3 -45 5 28 1 83 8 124 14 53 8 76 8 84 0 15 -15 72
-14 85 2 21 26 107 440 96 459 -5 7 -2 8 6 3 9 -6 11 2 8 33 -2 22 -1 39 3 37
3 -2 6 14 7 36 1 23 4 44 6 48 3 4 1 24 -4 44 -6 30 -5 37 7 37 13 0 13 3 3
15 -7 8 -10 25 -6 40 4 16 2 25 -5 25 -8 0 -6 7 4 18 10 10 17 25 17 33 0 12
-2 12 -9 0 -6 -10 -7 1 -3 30 11 80 9 104 -10 101 -25 -4 -22 7 8 34 l25 24
-23 1 c-13 0 -17 3 -10 6 6 2 12 9 12 14 0 6 -4 8 -9 4 -5 -3 -12 -1 -16 5
-10 16 17 12 37 -7 21 -19 24 -3 6 28 -11 17 -10 23 12 40 17 14 21 22 13 26
-7 2 -13 11 -13 19 0 8 -7 14 -15 14 -18 0 -19 -12 -4 -27 8 -8 8 -13 0 -17
-6 -4 -11 -2 -11 5 0 8 -4 8 -16 -2 -13 -11 -14 -9 -9 14 9 32 4 34 -21 6z
m-14 -119 c0 -5 -4 -10 -10 -10 -5 0 -10 5 -10 10 0 6 5 10 10 10 6 0 10 -4
10 -10z m-143 -502 c-3 -8 -6 -5 -6 6 -1 11 2 17 5 13 3 -3 4 -12 1 -19z
m-227 -418 c0 -5 -4 -10 -10 -10 -5 0 -10 5 -10 10 0 6 5 10 10 10 6 0 10 -4
10 -10z m-13 -482 c-3 -8 -6 -5 -6 6 -1 11 2 17 5 13 3 -3 4 -12 1 -19z m-77
-325 c0 -8 -38 17 -51 33 -9 11 -2 9 19 -6 17 -13 32 -25 32 -27z m51 -49 c13
-16 12 -16 -7 -6 -11 6 -27 19 -35 28 -13 16 -12 16 7 6 11 -6 27 -19 35 -28z
m-41 -14 c0 -5 -8 -10 -17 -10 -15 0 -16 2 -3 10 19 12 20 12 20 0z m-128
-242 c-7 -7 -12 -8 -12 -2 0 14 12 26 19 19 2 -3 -1 -11 -7 -17z"/>
<path d="M2751 6144 c0 -11 3 -14 6 -6 3 7 2 16 -1 19 -3 4 -6 -2 -5 -13z"/>
<path d="M2751 5974 c0 -11 3 -14 6 -6 3 7 2 16 -1 19 -3 4 -6 -2 -5 -13z"/>
<path d="M8947 5770 c-8 -11 -16 -18 -19 -15 -3 3 -15 -16 -26 -43 -19 -43
-19 -53 -8 -85 7 -21 16 -34 20 -30 4 5 5 -4 1 -19 -4 -16 -1 -37 9 -55 l15
-28 1 30 c0 22 3 26 12 17 31 -31 82 8 118 91 25 55 17 105 -22 137 -31 26
-83 26 -101 0z m80 -6 c-3 -3 -12 -4 -19 -1 -8 3 -5 6 6 6 11 1 17 -2 13 -5z
m31 -93 c-18 -29 -88 -53 -88 -31 0 6 11 10 25 10 14 0 36 10 48 23 26 28 33
27 15 -2z"/>
<path d="M1403 5651 c-9 -25 -8 -31 5 -36 8 -3 20 -1 26 5 5 5 15 10 21 10 5
0 3 -5 -5 -11 -11 -7 5 -9 56 -4 58 5 75 3 88 -10 9 -9 13 -22 9 -28 -4 -7 0
-7 9 1 10 8 14 20 11 29 -5 12 -3 14 7 8 8 -5 11 -3 8 6 -3 10 -27 14 -89 15
-120 2 -119 2 -127 24 -7 18 -8 18 -19 -9z"/>
<path d="M1086 5628 c-16 -19 -17 -20 -1 -15 9 4 23 7 31 7 8 0 11 6 8 15 -8
20 -16 19 -38 -7z"/>
<path d="M1225 5630 c-20 -13 -24 -20 -13 -20 9 0 19 6 21 13 4 9 8 8 16 -3 8
-12 10 -11 8 8 0 12 -1 22 -2 22 0 0 -13 -9 -30 -20z"/>
<path d="M1754 5618 c-5 -7 -3 -8 6 -3 10 6 12 2 7 -16 -6 -23 -5 -23 8 -5 14
19 12 36 -5 36 -5 0 -12 -5 -16 -12z"/>
<path d="M820 5583 c0 -12 5 -25 10 -28 13 -8 13 15 0 35 -8 12 -10 11 -10 -7z"/>
<path d="M1450 5578 c-12 -22 -12 -22 6 -6 10 10 15 20 12 24 -4 3 -12 -5 -18
-18z"/>
<path d="M4770 5590 c0 -5 5 -10 11 -10 5 0 7 5 4 10 -3 6 -8 10 -11 10 -2 0
-4 -4 -4 -10z"/>
<path d="M1287 5565 c-15 -14 -24 -25 -19 -25 5 0 19 11 32 25 30 32 23 32
-13 0z"/>
<path d="M4736 5544 c-8 -22 -8 -24 8 -24 8 0 16 -3 19 -7 2 -5 2 -2 0 5 -1 8
-3 20 -3 28 0 19 -16 18 -24 -2z"/>
<path d="M4791 5544 c0 -11 3 -14 6 -6 3 7 2 16 -1 19 -3 4 -6 -2 -5 -13z"/>
<path d="M8481 5555 c1 -19 18 -51 18 -35 0 8 -4 22 -9 30 -5 8 -9 11 -9 5z"/>
<path d="M4700 5540 c-13 -8 -12 -10 3 -10 9 0 17 5 17 10 0 12 -1 12 -20 0z"/>
<path d="M7139 5534 c-37 -19 -59 -65 -59 -122 0 -46 4 -58 29 -83 21 -20 39
-29 63 -29 44 0 78 10 78 22 0 6 -7 8 -15 4 -20 -7 -19 3 2 27 17 18 17 18
-10 6 -15 -7 -26 -18 -23 -25 5 -13 -11 -13 -31 -1 -9 6 -13 2 -13 -10 -1 -17
-2 -16 -16 2 -8 11 -19 20 -24 20 -4 0 -12 4 -17 9 -4 5 -3 6 4 2 7 -4 20 2
30 14 10 11 25 20 35 20 10 0 18 7 18 16 0 8 -5 12 -11 8 -8 -4 -8 0 0 15 7
12 10 25 7 30 -3 5 1 14 9 21 19 16 19 30 0 30 -20 0 -19 16 1 24 22 8 26 8
19 -4 -4 -6 -1 -17 5 -25 9 -11 9 -15 1 -15 -6 0 -11 -5 -11 -11 0 -6 6 -9 14
-6 11 5 13 0 6 -22 -6 -24 -5 -27 16 -29 30 -2 33 31 7 61 -17 19 -17 20 0 14
19 -7 22 1 7 23 -9 13 -11 13 -21 0 -8 -12 -9 -10 -4 8 6 21 4 22 -35 20 -23
-2 -50 -8 -61 -14z m118 -89 c0 -8 -4 -12 -9 -9 -5 3 -6 10 -3 15 9 13 12 11
12 -6z"/>
<path d="M7295 5510 c9 -17 13 -40 10 -50 -14 -43 -14 -67 -2 -84 12 -16 13
-16 13 3 0 11 -4 17 -8 15 -12 -8 -9 9 6 28 7 10 16 15 19 11 4 -3 7 -1 7 5 0
7 -5 12 -10 12 -7 0 -7 6 0 19 12 23 3 51 -16 51 -8 0 -14 5 -14 10 0 6 -5 10
-10 10 -6 0 -4 -13 5 -30z"/>
<path d="M4687 5513 c-8 -7 11 -33 24 -33 5 0 9 9 9 20 0 19 -20 27 -33 13z"/>
<path d="M4792 5500 c7 -11 18 -20 25 -20 7 0 13 -8 13 -17 0 -14 2 -15 13 -4
10 11 10 14 0 18 -7 3 -13 14 -13 25 0 17 -3 18 -15 8 -10 -9 -15 -9 -15 -1 0
6 -5 11 -10 11 -6 0 -5 -8 2 -20z"/>
<path d="M4845 5510 c3 -5 8 -10 11 -10 2 0 4 5 4 10 0 6 -5 10 -11 10 -5 0
-7 -4 -4 -10z"/>
<path d="M795 5453 c-10 -15 -28 -35 -39 -44 -26 -21 -16 -35 13 -19 19 10 56
78 47 87 -2 2 -11 -9 -21 -24z"/>
<path d="M4601 5464 c0 -11 3 -14 6 -6 3 7 2 16 -1 19 -3 4 -6 -2 -5 -13z"/>
<path d="M8511 5454 c0 -11 3 -14 6 -6 3 7 2 16 -1 19 -3 4 -6 -2 -5 -13z"/>
<path d="M4795 5439 c-4 -6 -5 -12 -2 -15 2 -3 7 2 10 11 7 17 1 20 -8 4z"/>
<path d="M4649 5410 c4 -18 6 -20 9 -7 2 9 8 17 13 17 5 0 9 4 9 8 0 4 -8 8
-18 8 -14 0 -17 -6 -13 -26z"/>
<path d="M4510 5375 c-7 -9 -8 -15 -2 -15 5 0 12 7 16 15 3 8 4 15 2 15 -2 0
-9 -7 -16 -15z"/>
<path d="M4725 5370 c-3 -6 1 -7 9 -4 18 7 21 14 7 14 -6 0 -13 -4 -16 -10z"/>
<path d="M7284 5362 c3 -6 -2 -13 -11 -15 -16 -4 -16 -5 -1 -6 21 -1 32 15 17
25 -7 4 -9 3 -5 -4z"/>
<path d="M4525 5330 c3 -5 8 -10 11 -10 2 0 4 5 4 10 0 6 -5 10 -11 10 -5 0
-7 -4 -4 -10z"/>
<path d="M4455 5303 l-17 -28 23 22 c12 12 20 25 17 28 -3 3 -13 -7 -23 -22z"/>
<path d="M4610 5311 c0 -4 9 -16 19 -25 19 -17 19 -17 14 2 -5 20 -33 39 -33
23z"/>
<path d="M8952 5280 c0 -14 2 -19 5 -12 2 6 2 18 0 25 -3 6 -5 1 -5 -13z"/>
<path d="M4470 5275 c0 -8 2 -15 4 -15 2 0 6 7 10 15 3 8 1 15 -4 15 -6 0 -10
-7 -10 -15z"/>
<path d="M4550 5258 c0 -17 2 -18 15 -8 8 7 15 14 15 15 0 2 -7 5 -15 9 -10 4
-15 -1 -15 -16z"/>
<path d="M4575 5220 c-3 -5 -1 -10 4 -10 6 0 11 5 11 10 0 6 -2 10 -4 10 -3 0
-8 -4 -11 -10z"/>
<path d="M4590 5189 c0 -5 5 -7 10 -4 6 3 10 8 10 11 0 2 -4 4 -10 4 -5 0 -10
-5 -10 -11z"/>
<path d="M4507 5101 c-4 -17 -3 -21 5 -13 5 5 8 16 6 23 -3 8 -7 3 -11 -10z"/>
<path d="M4395 5090 c-3 -5 -1 -10 4 -10 6 0 11 5 11 10 0 6 -2 10 -4 10 -3 0
-8 -4 -11 -10z"/>
<path d="M7051 5004 c0 -11 3 -14 6 -6 3 7 2 16 -1 19 -3 4 -6 -2 -5 -13z"/>
<path d="M1697 5003 c-4 -3 -7 -15 -7 -25 0 -10 -4 -18 -10 -18 -5 0 -9 -3 -9
-7 4 -28 -6 -31 -108 -33 -60 -1 -133 -4 -163 -7 -30 -3 -82 -6 -115 -8 -33
-2 -78 -7 -100 -10 -22 -3 -53 -6 -70 -6 -23 0 -27 -2 -15 -10 11 -7 8 -8 -11
-3 -16 3 -39 -1 -57 -10 -16 -8 -32 -12 -36 -9 -8 8 -12 -78 -7 -160 1 -18 21
-19 33 -2 4 6 8 2 8 -7 0 -10 -5 -18 -11 -18 -5 0 -7 -5 -3 -11 4 -8 9 -8 17
0 8 8 14 0 24 -27 16 -48 17 -44 -12 -78 -44 -51 -38 -54 103 -55 249 -1 407
-9 411 -20 2 -8 6 -8 11 1 4 6 42 14 86 17 81 6 114 16 114 34 0 6 -6 7 -12 3
-9 -5 -9 -2 1 9 18 23 5 21 -26 -3 -34 -26 -49 -25 -68 4 -25 38 -16 86 22
112 l32 21 -5 164 c-3 90 -7 165 -8 167 -2 1 -6 -1 -9 -5z m-40 -99 c-3 -3
-12 -4 -19 -1 -8 3 -5 6 6 6 11 1 17 -2 13 -5z m-241 -28 c4 -11 -31 -86 -41
-86 -2 0 0 14 5 30 5 19 5 28 -1 25 -5 -4 -9 -14 -9 -23 0 -14 -2 -13 -13 3
-8 10 -19 15 -26 11 -8 -5 -8 -1 1 19 7 15 17 24 25 21 8 -3 11 -1 8 4 -3 6 5
10 20 10 14 0 28 -6 31 -14z m216 -2 c-15 -11 -32 -13 -53 -9 -22 5 -29 4 -25
-4 8 -13 -1 -13 -29 -1 -27 11 -7 18 60 23 28 2 54 4 60 5 5 1 -1 -5 -13 -14z
m-86 -42 c21 -15 44 -57 44 -82 0 -42 -26 -70 -65 -70 -42 0 -65 29 -65 80 0
58 48 99 86 72z m-456 -187 c0 -8 -4 -15 -10 -15 -5 0 -10 7 -10 15 0 8 5 15
10 15 6 0 10 -7 10 -15z m179 -15 c35 18 70 -33 46 -67 -11 -15 -26 -18 -82
-16 -72 1 -123 15 -123 33 0 6 5 8 10 5 6 -3 10 5 10 19 0 13 -6 27 -12 29 -7
3 -3 6 9 6 12 1 25 -4 28 -9 4 -7 11 -8 18 -2 20 16 51 18 65 5 9 -9 19 -10
31 -3z m-149 -20 c0 -5 -8 -10 -17 -10 -15 0 -16 2 -3 10 19 12 20 12 20 0z"/>
<path d="M1496 4798 c-9 -12 -16 -37 -16 -55 0 -31 2 -33 33 -33 54 0 69 46
29 93 -20 22 -28 22 -46 -5z"/>
<path d="M9021 4956 l-24 -31 28 27 c16 15 27 29 24 31 -2 3 -15 -10 -28 -27z"/>
<path d="M8600 4880 c11 -36 20 -75 20 -87 0 -13 3 -23 8 -23 4 0 5 -44 2 -97
-3 -54 -4 -100 -3 -102 2 -3 8 0 14 6 6 6 12 51 13 100 1 91 -25 204 -58 248
-12 15 -11 5 4 -45z"/>
<path d="M7971 4864 c0 -11 3 -14 6 -6 3 7 2 16 -1 19 -3 4 -6 -2 -5 -13z"/>
<path d="M8792 4753 c-22 -18 -31 -21 -26 -9 4 11 1 16 -10 16 -9 0 -16 -7
-16 -15 0 -8 -4 -15 -9 -15 -5 0 -8 -16 -7 -36 1 -20 -2 -38 -7 -41 -14 -9 15
-33 39 -33 24 0 35 19 12 21 -7 0 -4 4 7 9 11 5 14 9 6 9 -10 1 -11 4 -2 15 9
11 9 15 -1 19 -10 4 -10 8 2 16 8 6 11 11 6 11 -6 0 3 14 19 30 35 37 31 38
-13 3z"/>
<path d="M9037 4753 c-11 -10 -8 -43 4 -43 5 0 7 5 3 12 -4 6 1 17 11 25 15
10 16 13 4 13 -9 0 -19 -3 -22 -7z"/>
<path d="M8970 4740 c0 -5 7 -10 15 -10 8 0 15 5 15 10 0 6 -7 10 -15 10 -8 0
-15 -4 -15 -10z"/>
<path d="M8959 4712 c-1 -4 -2 -20 -3 -37 -1 -27 2 -30 29 -32 23 -2 26 -1 11
6 -13 5 -16 10 -8 14 17 11 10 45 -10 50 -10 3 -18 2 -19 -1z"/>
<path d="M9028 4667 c-3 -31 -1 -34 25 -34 15 0 24 3 19 6 -5 3 -8 15 -6 26 3
18 -11 34 -27 35 -4 0 -9 -15 -11 -33z"/>
<path d="M7912 4615 c0 -16 2 -22 5 -12 2 9 2 23 0 30 -3 6 -5 -1 -5 -18z"/>
<path d="M8753 4603 c9 -2 25 -2 35 0 9 3 1 5 -18 5 -19 0 -27 -2 -17 -5z"/>
<path d="M8261 4583 c-1 -7 -14 -13 -30 -13 -27 0 -29 -3 -32 -43 -5 -52 0
-79 11 -72 4 2 6 -23 3 -58 -4 -67 4 -91 29 -82 13 5 17 31 23 130 4 68 5 129
2 137 -4 9 -6 10 -6 1z"/>
<path d="M8616 4538 c-3 -7 -9 -35 -16 -63 -27 -117 -92 -236 -184 -339 -40
-45 -31 -45 15 -1 54 52 125 161 156 239 31 78 54 176 42 176 -5 0 -11 -6 -13
-12z"/>
<path d="M7934 4505 c19 -53 28 -125 24 -189 -3 -40 -2 -62 3 -51 19 50 3 223
-24 250 -7 7 -8 3 -3 -10z"/>
<path d="M6710 4369 c0 -5 5 -7 10 -4 6 3 10 8 10 11 0 2 -4 4 -10 4 -5 0 -10
-5 -10 -11z"/>
<path d="M7872 4340 c0 -14 2 -19 5 -12 2 6 2 18 0 25 -3 6 -5 1 -5 -13z"/>
<path d="M6690 4340 c0 -5 5 -10 10 -10 6 0 10 5 10 10 0 6 -4 10 -10 10 -5 0
-10 -4 -10 -10z"/>
<path d="M7890 4310 c-24 -18 -37 -60 -18 -60 5 0 8 6 5 13 -2 6 7 24 21 40
30 32 27 34 -8 7z"/>
<path d="M7936 4225 c-9 -26 -7 -32 5 -12 6 10 9 21 6 23 -2 3 -7 -2 -11 -11z"/>
<path d="M7905 4159 c-4 -6 -5 -12 -2 -15 2 -3 7 2 10 11 7 17 1 20 -8 4z"/>
<path d="M7868 4120 c-16 -28 -16 -29 1 -19 9 6 18 20 18 30 2 25 1 24 -19
-11z"/>
<path d="M7880 4065 c-6 -15 -13 -32 -17 -38 -4 -6 -1 -7 6 -3 14 9 34 56 27
64 -3 3 -10 -8 -16 -23z"/>
<path d="M8294 4034 c-18 -14 -18 -15 4 -4 12 6 22 13 22 15 0 8 -5 6 -26 -11z"/>
<path d="M8715 4021 c-16 -10 -38 -28 -49 -39 -10 -12 -22 -19 -27 -17 -7 5
-25 -35 -20 -44 2 -2 -2 -7 -7 -10 -5 -3 -6 -14 -3 -24 5 -15 13 -7 34 36 33
67 68 97 114 97 66 0 142 -64 163 -137 6 -21 13 -154 17 -295 3 -142 10 -255
14 -252 5 3 7 119 6 259 -1 149 2 250 7 245 14 -14 23 -136 25 -335 1 -99 6
-184 11 -189 15 -15 -18 -45 -41 -39 -13 4 -19 0 -19 -11 0 -9 -7 -16 -15 -16
-9 0 -21 -11 -27 -25 -6 -14 -15 -25 -20 -25 -4 0 -8 -7 -8 -16 0 -8 -4 -12
-10 -9 -5 3 -10 -1 -10 -10 0 -9 -4 -13 -10 -10 -15 9 8 -46 28 -68 9 -11 26
-24 37 -30 19 -9 19 -9 5 8 -14 17 -13 18 8 13 12 -4 22 -3 22 0 0 4 22 6 49
6 36 -1 55 4 75 20 51 42 50 144 -3 200 -20 21 -21 33 -21 257 0 244 -9 328
-41 391 -25 50 -39 56 -24 10 7 -20 15 -53 18 -72 6 -35 6 -34 -16 10 -12 25
-28 44 -35 43 -6 -2 -11 3 -9 10 1 6 -4 11 -10 10 -7 -2 -12 1 -10 6 1 5 -2 9
-7 9 -5 0 -12 4 -15 9 -11 15 -98 53 -122 53 -13 0 -37 -8 -54 -19z"/>
<path d="M7846 3993 c-6 -14 -5 -15 5 -6 7 7 10 15 7 18 -3 3 -9 -2 -12 -12z"/>
<path d="M8160 3970 c-8 -5 -10 -10 -5 -10 6 0 17 5 25 10 8 5 11 10 5 10 -5
0 -17 -5 -25 -10z"/>
<path d="M8050 3925 c-14 -8 -20 -14 -15 -14 6 0 21 6 35 14 14 8 21 14 15 14
-5 0 -21 -6 -35 -14z"/>
<path d="M7890 3839 c0 -5 5 -7 10 -4 6 3 10 8 10 11 0 2 -4 4 -10 4 -5 0 -10
-5 -10 -11z"/>
<path d="M8254 3668 l-29 -33 33 29 c17 17 32 31 32 33 0 8 -8 1 -36 -29z"/>
<path d="M1554 3655 c-14 -9 -23 -30 -28 -62 -27 -185 -43 -267 -52 -270 -18
-6 -24 34 -24 179 l0 136 -27 -7 -28 -7 -1 -227 0 -227 80 -1 c52 0 74 -3 61
-8 -11 -5 -36 -7 -55 -5 -19 2 -26 1 -15 -2 46 -13 37 -24 -20 -25 -213 -4
-245 -9 -245 -34 0 -7 8 -15 18 -18 14 -3 13 -6 -7 -14 l-23 -9 26 -17 c14
-10 26 -25 26 -35 0 -10 15 -23 39 -33 27 -12 40 -24 43 -40 3 -25 28 -39 28
-15 0 10 6 13 16 9 9 -3 14 -13 11 -24 -3 -11 -1 -22 4 -25 14 -8 10 -50 -6
-64 -8 -7 -15 -9 -15 -4 0 5 -5 1 -11 -8 -5 -10 -20 -18 -32 -19 -20 -1 -19
-2 6 -12 16 -6 26 -16 23 -24 -3 -7 -1 -13 4 -13 6 0 10 5 10 11 0 5 5 7 11 4
14 -10 4 -18 -39 -31 l-37 -12 30 -2 c28 -1 80 -18 61 -19 -5 -1 -3 -8 4 -16
10 -13 9 -15 -11 -15 -13 0 -19 -4 -14 -8 26 -18 2 -52 -38 -53 -23 -1 -16 -4
22 -10 30 -5 57 -12 60 -14 2 -3 -36 -6 -85 -6 l-89 -2 78 -11 c87 -12 96 -26
14 -19 -29 2 -72 -1 -97 -6 l-45 -9 45 -1 c44 -2 44 -2 23 -18 -29 -19 -30
-37 -3 -28 12 4 27 1 35 -5 12 -10 15 -9 15 4 0 9 -7 16 -15 16 -8 0 -12 6 -9
14 5 12 11 13 30 4 13 -6 22 -14 19 -17 -2 -4 1 -13 6 -21 8 -13 10 -13 18 0
6 8 14 11 18 6 4 -4 9 -143 11 -308 1 -166 5 -305 8 -309 3 -5 -4 -9 -16 -9
-12 0 -19 -4 -16 -9 7 -10 -49 -20 -124 -22 l-55 -2 70 -8 c227 -26 1115 -50
1115 -30 0 9 114 13 475 18 176 2 327 4 335 6 34 4 190 -16 190 -24 0 -6 41
-9 98 -8 93 1 210 -5 298 -16 22 -3 51 -2 63 3 24 9 111 -7 111 -20 0 -5 7 -8
15 -8 8 0 15 5 15 10 0 6 8 10 18 10 14 0 14 -2 3 -9 -13 -9 136 -18 389 -23
58 -2 107 -5 110 -8 26 -28 294 -68 475 -71 l60 -1 -45 -10 c-50 -10 -427 3
-755 27 -110 8 -276 19 -370 25 -151 9 -283 19 -452 35 -50 5 -71 -6 -37 -19
8 -3 82 -10 162 -16 81 -5 197 -14 257 -20 61 -5 153 -12 205 -15 52 -2 145
-9 205 -14 61 -6 180 -15 265 -21 320 -21 620 -41 760 -50 283 -18 460 -33
460 -40 0 -4 -34 -11 -75 -15 -41 -4 -77 -10 -79 -13 -2 -4 82 -8 187 -10 171
-2 298 -11 404 -28 23 -4 33 -2 29 5 -12 19 45 25 75 7 25 -15 46 -18 99 -16
48 1 134 -11 140 -20 4 -6 7 5 8 25 4 108 92 175 229 175 96 0 163 -38 163
-91 0 -23 -74 -47 -169 -55 l-76 -6 1 -34 c1 -19 -3 -34 -9 -34 -19 0 -1 -10
54 -30 l54 -20 -82 7 c-73 5 -83 4 -83 -11 0 -9 -3 -15 -7 -15 -49 8 -49 -22
-1 -47 31 -16 29 -34 -3 -34 -26 0 -34 -23 -20 -61 8 -23 8 -36 0 -45 -29 -35
250 -48 731 -34 195 5 373 13 396 16 l41 6 2 53 c2 63 -14 84 -67 87 -20 1
-55 3 -77 4 -53 2 -204 43 -340 92 l-110 40 57 -3 c31 -2 61 -5 65 -7 16 -9
63 -7 63 1 0 6 14 6 34 0 44 -12 246 -17 246 -6 0 4 5 5 12 1 6 -4 23 -8 37
-9 14 -1 55 -6 91 -10 108 -13 123 -12 143 13 21 25 65 30 73 7 4 -9 19 -15
36 -15 16 0 59 -7 96 -14 63 -14 140 -21 552 -47 96 -6 207 -14 245 -18 81 -8
134 0 147 22 4 9 33 21 63 27 37 8 59 18 66 31 8 16 13 18 24 9 16 -13 35 -6
35 13 0 7 12 18 27 25 20 9 24 9 15 0 -15 -15 -16 -45 -1 -53 18 -12 56 4 62
25 4 17 2 20 -15 14 -15 -4 -19 -2 -16 7 3 9 23 14 57 15 52 1 52 1 31 -18
-11 -10 -20 -23 -20 -27 0 -16 58 -6 79 13 11 10 36 20 57 22 36 3 36 3 18
-17 -32 -35 -71 -49 -141 -51 -72 -1 -95 -8 -130 -41 -25 -22 -53 -17 -53 11
0 17 -8 15 -80 -19 -44 -21 -80 -43 -80 -48 0 -20 21 -21 60 -2 30 14 57 19
100 17 55 -3 61 -1 105 35 44 37 85 51 85 30 0 -5 -12 -24 -26 -41 -15 -17
-24 -33 -21 -36 5 -6 67 57 67 69 0 11 76 8 105 -5 29 -13 33 -28 8 -29 -11 0
-13 -3 -5 -6 18 -7 15 -31 -6 -42 -10 -5 -54 -15 -97 -21 -44 -6 -96 -15 -115
-19 -29 -8 -23 -9 40 -10 41 0 94 4 118 8 24 5 40 5 35 1 -27 -25 -167 -33
-728 -40 -348 -5 -619 -13 -660 -19 -80 -13 -308 -72 -301 -78 2 -2 49 8 105
22 183 46 285 56 628 62 l322 5 7 -59 6 -60 52 -7 c28 -3 148 -6 267 -6 174 0
241 4 339 21 133 22 170 33 170 49 0 5 -10 12 -22 14 -13 3 -51 10 -85 17
-104 20 -75 31 65 26 70 -3 217 -2 327 1 l200 7 -322 5 c-177 3 -324 8 -328
12 -4 3 -1 32 5 63 9 44 17 58 35 65 30 11 348 6 559 -9 87 -7 161 -10 164 -7
13 13 -13 19 -129 27 -68 5 -125 12 -128 14 -2 3 47 5 110 4 63 0 122 0 132 2
20 3 23 15 5 22 -10 4 -10 6 0 6 7 1 12 16 12 41 0 38 -1 39 -25 30 -14 -5
-25 -6 -25 -2 0 9 1 8 -130 21 -52 5 -120 12 -150 15 -105 10 -246 16 -500 22
-140 3 -275 7 -300 9 -25 2 -80 5 -122 6 -58 2 -79 7 -83 18 -3 8 -9 247 -12
529 l-6 514 -66 -8 c-70 -8 -323 -6 -606 5 -93 4 -171 6 -173 5 -2 -1 -3 -186
-3 -410 1 -225 -2 -452 -5 -504 l-6 -95 -72 3 c-206 8 -233 7 -229 -5 7 -18
-5 -33 -21 -27 -8 3 -16 15 -19 26 -6 20 -11 21 -86 15 -60 -5 -82 -3 -90 7
-6 8 -28 14 -49 14 -20 1 -134 10 -252 21 -118 11 -308 27 -423 36 -114 9
-228 19 -255 24 -46 9 -172 19 -299 25 -54 3 -62 1 -67 -16 -5 -21 -26 -16
-26 7 0 9 -23 16 -77 21 -43 4 -83 7 -89 6 -28 -5 -53 244 -57 573 l-2 230
-95 6 c-236 17 -497 22 -504 11 -5 -9 -13 -8 -29 2 -29 18 -247 29 -247 12 0
-7 -3 -7 -8 2 -6 9 -67 14 -223 19 l-215 6 4 -40 c2 -22 -1 -57 -7 -78 -8 -30
-7 -40 4 -52 8 -8 15 -27 15 -42 0 -16 6 -34 14 -41 8 -6 12 -18 9 -26 -3 -10
0 -12 10 -8 9 3 20 -2 26 -14 6 -11 24 -25 40 -32 17 -7 29 -16 26 -20 -6 -9
66 -60 84 -60 7 0 9 -5 6 -10 -6 -10 29 -68 49 -82 5 -3 -2 -8 -15 -10 l-24
-5 25 -11 c14 -6 19 -11 13 -11 -7 -1 -13 -5 -13 -10 0 -9 31 -22 69 -27 14
-2 36 -7 50 -13 14 -5 58 -18 98 -27 136 -34 69 -45 -291 -49 -313 -4 -297 -3
-314 -13 -10 -7 -10 -15 2 -43 12 -29 14 -51 7 -92 0 -5 -25 -6 -53 -3 -29 4
-70 8 -91 10 -21 2 -43 8 -50 14 -30 25 -133 40 -237 36 -58 -2 -118 -6 -135
-8 -38 -6 -255 -24 -355 -31 -50 -3 -70 -1 -60 5 12 7 8 10 -15 11 -99 4 -133
7 -143 13 -6 3 -51 9 -99 12 -104 6 -258 35 -258 49 0 6 20 15 44 21 l45 10
-47 13 -46 13 39 47 c24 28 43 64 49 91 6 25 10 164 11 309 0 145 2 267 5 271
5 8 -165 16 -535 26 -129 4 -243 11 -252 16 -16 8 -18 26 -18 156 0 81 -3 259
-7 395 l-6 249 -271 -4 c-149 -2 -279 -8 -288 -12 -10 -4 -20 -15 -22 -24 -10
-32 -17 -1508 -7 -1550 9 -44 3 -53 -20 -25 -12 13 -14 154 -17 804 -3 781 -2
789 18 809 24 24 14 27 -17 5 -12 -9 -34 -13 -48 -11 -22 4 -25 1 -26 -27 -2
-29 -2 -29 -8 8 -3 22 -3 42 0 45 6 5 21 160 16 160 -1 0 -12 -7 -23 -15z
m-147 -117 c-2 -13 -4 -3 -4 22 0 25 2 35 4 23 2 -13 2 -33 0 -45z m108 -287
c3 -5 1 -12 -5 -16 -5 -3 -10 1 -10 9 0 18 6 21 15 7z m563 -553 c-6 -18 -28
-21 -28 -4 0 9 7 16 16 16 9 0 14 -5 12 -12z m-278 -18 c0 -5 -4 -10 -10 -10
-5 0 -10 5 -10 10 0 6 5 10 10 10 6 0 10 -4 10 -10z m170 -19 c0 -6 -4 -13
-10 -16 -5 -3 -10 1 -10 9 0 9 5 16 10 16 6 0 10 -4 10 -9z m274 -104 c-3 -9
-11 -17 -16 -17 -6 0 -7 7 -4 16 3 9 6 21 6 27 0 8 3 8 10 1 6 -6 8 -18 4 -27z
m174 11 c-3 -7 -11 -13 -18 -13 -7 0 -15 6 -17 13 -3 7 4 12 17 12 13 0 20 -5
18 -12z m-123 -18 c3 -5 1 -10 -4 -10 -6 0 -11 5 -11 10 0 6 2 10 4 10 3 0 8
-4 11 -10z m-185 -56 c0 -8 -5 -12 -10 -9 -6 4 -8 11 -5 16 9 14 15 11 15 -7z
m6263 -16 c29 -38 11 -55 -20 -18 -13 16 -32 30 -40 30 -14 0 -14 -2 -1 -17
27 -32 34 -50 11 -30 -11 9 -30 17 -43 17 -30 0 -70 -37 -70 -64 0 -14 -3 -17
-11 -9 -15 15 12 75 47 101 41 31 100 26 127 -10z m-6998 12 c3 -5 1 -10 -4
-10 -6 0 -11 5 -11 10 0 6 2 10 4 10 3 0 8 -4 11 -10z m3962 -66 c-9 -9 -28 6
-21 18 4 6 10 6 17 -1 6 -6 8 -13 4 -17z m2958 -20 c27 -28 -4 -104 -43 -104
-12 0 -12 -3 -2 -15 19 -23 55 -18 89 11 25 21 31 33 31 67 0 31 3 38 10 27
15 -23 12 -69 -7 -101 -20 -33 -75 -54 -104 -39 -24 14 -59 59 -59 79 0 14 2
14 10 1 8 -11 9 -9 5 10 -4 18 1 34 15 53 25 31 33 33 55 11z m-5960 -3 c3 -5
1 -12 -5 -16 -5 -3 -10 1 -10 9 0 18 6 21 15 7z m6095 -181 c0 -5 14 -10 30
-10 46 0 167 -81 153 -103 -3 -5 -9 -4 -13 4 -7 10 -12 10 -27 -2 -17 -13 -17
-13 -3 5 14 18 13 19 -3 13 -10 -4 -45 2 -77 13 -33 11 -82 20 -110 20 -109 0
-211 -107 -234 -245 -8 -49 15 -143 51 -205 l25 -45 -30 35 c-68 78 -90 220
-50 327 27 73 107 157 164 171 21 6 55 15 74 20 47 13 50 13 50 2z m-5360 -21
c0 -5 -4 -9 -10 -9 -5 0 -10 7 -10 16 0 8 5 12 10 9 6 -3 10 -10 10 -16z
m5573 -103 c4 -10 1 -13 -8 -9 -8 3 -12 9 -9 14 7 12 11 11 17 -5z m-6519 -82
c21 -20 20 -26 -5 -58 -28 -36 -56 -34 -64 5 -5 22 -2 36 11 50 21 23 37 24
58 3z m800 -19 c20 -31 42 -32 75 -2 l25 22 -23 -33 c-19 -27 -27 -31 -49 -26
-56 14 -72 24 -72 44 0 28 24 25 44 -5z m5740 -68 c-1 -9 2 -14 7 -11 14 9 22
-45 16 -113 -10 -102 -75 -192 -166 -230 -45 -19 -160 -11 -202 14 -36 21 -37
32 -4 25 20 -3 24 -1 19 12 -6 14 -2 15 36 1 82 -29 146 -14 209 47 62 61 85
129 72 221 -5 40 -4 56 3 54 6 -2 10 -11 10 -20z m-7114 -61 c0 -2 3 -11 6
-20 5 -12 0 -16 -19 -16 -24 0 -42 21 -30 34 7 7 43 8 43 2z m967 -28 c-3 -8
-6 -5 -6 6 -1 11 2 17 5 13 3 -3 4 -12 1 -19z m-197 -28 c0 -5 -4 -10 -10 -10
-5 0 -10 5 -10 10 0 6 5 10 10 10 6 0 10 -4 10 -10z m-963 -6 c-3 -3 -12 -4
-19 -1 -8 3 -5 6 6 6 11 1 17 -2 13 -5z m6261 -356 c-4 -41 -34 -51 -47 -16
-10 27 3 48 31 48 16 0 19 -6 16 -32z m830 25 c-10 -2 -28 -2 -40 0 -13 2 -5
4 17 4 22 1 32 -1 23 -4z m-1434 -58 c11 -1 28 -3 36 -4 8 -1 -19 -13 -60 -26
-77 -23 -95 -21 -88 11 3 18 61 36 82 26 5 -3 18 -6 30 -7z m533 -161 c-3 -3
-12 -4 -19 -1 -8 3 -5 6 6 6 11 1 17 -2 13 -5z"/>
<path d="M1183 3641 c-9 -14 -9 -22 -2 -27 15 -9 21 1 17 26 -3 21 -3 21 -15
1z"/>
<path d="M8148 3582 c-36 -31 -77 -65 -90 -75 -23 -19 -23 -19 7 -2 17 10 41
28 56 41 14 13 29 24 35 24 5 0 16 9 24 20 8 11 19 20 26 20 6 0 11 7 11 15 0
8 -1 15 -1 14 -1 0 -31 -26 -68 -57z"/>
<path d="M1092 3553 c-23 -26 -32 -103 -11 -103 5 0 7 -4 4 -10 -3 -5 0 -20 6
-32 7 -13 13 -62 14 -109 1 -47 6 -92 10 -99 5 -9 4 -11 -3 -6 -7 4 -12 3 -12
-2 0 -10 33 -22 62 -22 10 0 22 10 29 21 6 12 7 19 1 15 -6 -3 -15 29 -22 82
-12 91 -47 283 -52 288 -2 1 -13 -9 -26 -23z"/>
<path d="M1300 3570 c-12 -7 -14 -35 -12 -142 1 -73 3 -159 5 -190 2 -34 -1
-59 -7 -62 -6 -2 6 -5 27 -5 l39 -1 -6 38 c-3 20 -8 107 -12 193 -3 86 -9 161
-13 167 -4 7 -12 8 -21 2z"/>
<path d="M7718 3553 c7 -3 16 -2 19 1 4 3 -2 6 -13 5 -11 0 -14 -3 -6 -6z"/>
<path d="M7758 3553 c6 -2 18 -2 25 0 6 3 1 5 -13 5 -14 0 -19 -2 -12 -5z"/>
<path d="M906 3531 c-3 -5 3 -58 13 -117 28 -160 32 -212 18 -217 -16 -6 94
-20 123 -15 19 2 24 10 27 41 2 21 0 36 -5 33 -5 -3 -19 60 -32 139 -23 143
-24 145 -49 145 -14 0 -33 -4 -40 -9 -9 -6 -22 -6 -32 0 -10 5 -20 5 -23 0z
m41 -43 c-3 -8 -6 -5 -6 6 -1 11 2 17 5 13 3 -3 4 -12 1 -19z m10 -40 c-3 -8
-6 -5 -6 6 -1 11 2 17 5 13 3 -3 4 -12 1 -19z"/>
<path d="M1196 3519 c-19 -15 -25 -27 -20 -38 12 -27 33 -163 34 -216 1 -75 8
-95 36 -95 22 0 23 3 19 43 -28 246 -37 322 -39 325 -2 1 -15 -7 -30 -19z"/>
<path d="M7945 3429 c-16 -10 -25 -19 -19 -19 7 0 22 9 35 20 30 24 23 24 -16
-1z"/>
<path d="M7880 3390 c-9 -6 -10 -10 -3 -10 6 0 15 5 18 10 8 12 4 12 -15 0z"/>
<path d="M1082 3320 c0 -14 2 -19 5 -12 2 6 2 18 0 25 -3 6 -5 1 -5 -13z"/>
<path d="M8482 2953 c-6 -2 -10 -9 -7 -13 7 -11 35 -2 35 11 0 10 -8 10 -28 2z"/>
<path d="M8020 2830 c0 -6 -6 -10 -12 -9 -27 3 -38 -2 -53 -25 -8 -13 -12 -31
-9 -40 5 -14 9 -15 15 -4 7 10 9 9 9 -4 0 -10 0 -21 1 -25 4 -37 77 -45 109
-13 28 28 25 60 -9 98 -30 32 -51 41 -51 22z m46 -52 c9 -30 -23 -55 -44 -34
-19 18 -6 56 18 56 10 0 22 -10 26 -22z"/>
<path d="M1258 2583 c7 -3 16 -2 19 1 4 3 -2 6 -13 5 -11 0 -14 -3 -6 -6z"/>
<path d="M1165 2510 c3 -5 8 -10 11 -10 2 0 4 5 4 10 0 6 -5 10 -11 10 -5 0
-7 -4 -4 -10z"/>
<path d="M6450 2494 c0 -22 46 -83 65 -86 53 -11 79 63 29 82 -28 11 -94 14
-94 4z"/>
<path d="M1281 2416 c-10 -12 -8 -13 8 -9 12 3 21 9 21 14 0 14 -16 11 -29 -5z"/>
<path d="M3386 2308 c3 -5 -5 -6 -19 -3 -37 10 -77 -47 -84 -117 -5 -50 -3
-56 26 -87 29 -31 35 -33 79 -28 39 4 53 12 79 43 18 20 31 39 28 42 -2 3 -20
-3 -39 -12 -19 -9 -45 -16 -58 -15 -18 1 -15 3 12 11 60 18 100 38 100 52 0
23 -28 81 -47 97 -19 17 -86 32 -77 17z m54 -62 c-4 -4 -21 -4 -37 2 -28 11
-28 11 9 9 21 -1 33 -6 28 -11z"/>
<path d="M7891 2217 c-23 -29 -39 -82 -30 -105 10 -27 51 -44 85 -36 27 7 54
50 54 87 0 49 -80 88 -109 54z m64 -47 c0 -27 -22 -39 -31 -16 -8 22 3 49 19
43 6 -2 12 -14 12 -27z"/>
<path d="M6865 2130 c-11 -5 -60 -9 -110 -11 l-90 -2 75 -9 c105 -12 164 -7
168 15 4 18 -11 21 -43 7z"/>
<path d="M6916 2076 c-16 -27 -19 -28 -69 -22 -29 3 -127 9 -219 12 -93 4
-168 10 -168 14 0 3 -16 4 -35 2 -19 -2 -32 -8 -29 -13 3 -5 -3 -9 -13 -10
-50 -1 31 -17 122 -22 55 -4 170 -12 256 -17 150 -10 158 -10 230 13 59 18 74
27 74 42 0 17 -9 21 -66 25 -65 5 -67 4 -83 -24z"/>
<path d="M1630 1730 c0 -5 7 -10 16 -10 8 0 12 5 9 10 -3 6 -10 10 -16 10 -5
0 -9 -4 -9 -10z"/>
<path d="M1598 1713 c7 -3 16 -2 19 1 4 3 -2 6 -13 5 -11 0 -14 -3 -6 -6z"/>
<path d="M2511 1670 c47 -5 147 -18 222 -30 75 -12 140 -19 145 -17 8 6 316
-37 347 -48 l20 -7 -20 15 c-11 8 -78 24 -150 36 -141 23 -533 62 -605 60 -27
-1 -11 -5 41 -9z"/>
<path d="M740 1659 c-431 -53 -565 -81 -602 -126 -7 -9 -8 -14 -3 -12 83 38
107 48 149 58 26 6 94 18 150 26 123 17 301 42 376 54 70 11 16 11 -70 0z"/>
<path d="M2886 1543 c-15 -8 -87 -26 -160 -39 -165 -30 -177 -34 -96 -27 158
12 286 42 305 73 9 14 -15 11 -49 -7z"/>
<path d="M3309 1503 c-13 -16 -12 -17 4 -4 16 13 21 21 13 21 -2 0 -10 -8 -17
-17z"/>
<path d="M3316 1486 c-39 -25 -213 -76 -321 -96 -85 -15 -344 -37 -595 -51
-241 -13 -1168 -7 -1410 10 -80 5 -206 11 -280 13 l-135 3 -9 -37 c-11 -42
-22 -50 -23 -15 -1 48 -4 57 -18 57 -9 0 -12 -6 -8 -17 5 -16 3 -15 -18 3 -13
11 -34 18 -45 16 -17 -2 -22 -10 -20 -34 1 -26 -3 -32 -21 -33 -22 -2 -27 8
-24 46 2 20 -25 44 -33 30 -3 -5 -7 -21 -8 -35 -1 -14 -6 -26 -10 -26 -4 0 -8
-6 -8 -13 0 -10 46 -18 188 -31 103 -10 266 -26 362 -37 231 -26 637 -39 1230
-39 470 0 732 12 855 39 251 56 200 57 1110 -28 441 -42 524 -46 707 -35 l106
7 6 41 c3 23 9 51 12 63 l6 23 -48 -15 c-27 -9 -89 -25 -139 -37 -67 -15 -95
-27 -108 -44 -20 -26 -26 -26 -252 -5 -55 6 -188 17 -295 26 -197 15 -370 33
-625 61 -145 17 -210 36 -201 60 4 9 -2 14 -15 14 -36 0 -15 24 39 46 29 11
49 24 45 27 -3 4 -2 7 3 7 6 0 20 14 32 30 27 36 20 37 -32 6z"/>
<path d="M1920 1480 c-25 -10 -93 -28 -152 -40 -60 -12 -108 -27 -108 -31 0
-15 143 -10 196 6 28 8 68 30 90 49 44 39 39 42 -26 16z"/>
<path d="M2388 1443 c7 -3 16 -2 19 1 4 3 -2 6 -13 5 -11 0 -14 -3 -6 -6z"/>
<path d="M2308 1433 c7 -3 16 -2 19 1 4 3 -2 6 -13 5 -11 0 -14 -3 -6 -6z"/>
<path d="M2218 1423 c6 -2 18 -2 25 0 6 3 1 5 -13 5 -14 0 -19 -2 -12 -5z"/>
<path d="M3645 1380 c-3 -5 -1 -10 4 -10 6 0 11 5 11 10 0 6 -2 10 -4 10 -3 0
-8 -4 -11 -10z"/>
<path d="M5917 1380 c-143 -26 -277 -91 -417 -205 -118 -94 -131 -100 -240
-99 -52 0 -132 5 -178 10 -66 8 -85 7 -94 -3 -14 -17 -14 -17 62 -31 158 -29
528 -49 625 -34 85 14 253 36 440 58 77 9 149 20 160 24 18 7 15 10 -19 25
-21 9 -70 19 -107 22 -38 3 -69 10 -69 14 0 5 25 27 56 49 68 51 83 79 60 114
-9 14 -31 33 -49 42 -37 20 -157 27 -230 14z"/>
<path d="M4825 1344 c-44 -13 -87 -27 -95 -30 -8 -4 -22 -8 -30 -8 -41 -4
-111 -29 -99 -36 14 -9 39 -6 134 20 131 36 200 58 182 59 -10 1 -15 6 -12 11
3 6 5 10 3 9 -2 0 -39 -11 -83 -25z"/>
<path d="M7900 1330 c0 -11 4 -20 9 -20 5 0 7 9 4 20 -3 11 -7 20 -9 20 -2 0
-4 -9 -4 -20z"/>
<path d="M4326 1311 c-12 -5 -15 -10 -9 -14 6 -4 16 0 23 8 14 17 13 17 -14 6z"/>
<path d="M8900 1229 c0 -6 6 -9 14 -6 10 4 14 0 11 -14 -5 -23 31 -27 60 -5
18 13 18 14 -3 25 -27 14 -82 14 -82 0z"/>
<path d="M3481 1211 c-8 -5 -28 -9 -45 -9 -17 0 -58 -5 -91 -10 -33 -6 -116
-16 -185 -22 -69 -6 -177 -18 -240 -26 -63 -8 -160 -18 -215 -24 -320 -30
-415 -42 -462 -57 -29 -9 -53 -21 -53 -25 0 -4 -10 -16 -22 -28 -12 -11 -18
-20 -12 -21 5 0 -1 -4 -14 -10 -15 -5 -30 -5 -42 1 -20 11 -80 3 -80 -11 0 -5
18 -12 40 -15 23 -4 40 -12 40 -19 0 -19 112 -29 230 -22 116 7 867 89 1080
117 202 27 217 32 223 73 4 32 -8 81 -26 105 -12 15 -44 16 -49 1 -3 -9 -9 -9
-25 0 -26 13 -34 14 -52 2z"/>
<path d="M9168 1203 c6 -2 18 -2 25 0 6 3 1 5 -13 5 -14 0 -19 -2 -12 -5z"/>
<path d="M7685 1060 c-13 -5 -14 -9 -5 -9 8 0 24 4 35 9 13 5 14 9 5 9 -8 0
-24 -4 -35 -9z"/>
<path d="M7615 1040 c-13 -5 -14 -9 -5 -9 8 0 24 4 35 9 13 5 14 9 5 9 -8 0
-24 -4 -35 -9z"/>
<path d="M6005 1024 c-55 -7 -122 -17 -150 -23 -44 -9 -38 -10 45 -5 112 6
217 21 239 34 21 12 -4 11 -134 -6z"/>
<path d="M6310 1024 c0 -5 -26 -10 -58 -11 -31 -1 -79 -9 -107 -16 l-50 -14
50 -7 c28 -4 75 -11 105 -16 202 -34 508 -37 665 -6 39 8 68 15 65 16 -3 1
-25 2 -50 4 -25 1 -58 5 -75 9 l-30 8 30 -14 c29 -13 25 -15 -80 -22 -131 -9
-414 1 -540 20 l-90 13 178 1 c144 1 181 4 193 16 14 13 11 15 -28 15 -24 0
-73 3 -110 7 -38 3 -68 2 -68 -3z m148 -21 c-16 -2 -40 -2 -55 0 -16 2 -3 4
27 4 30 0 43 -2 28 -4z"/>
<path d="M8505 1020 c63 -8 201 -13 194 -6 -2 2 -60 6 -129 9 -83 3 -105 2
-65 -3z"/>
<path d="M8753 1003 c9 -2 25 -2 35 0 9 3 1 5 -18 5 -19 0 -27 -2 -17 -5z"/>
<path d="M6768 983 c6 -2 18 -2 25 0 6 3 1 5 -13 5 -14 0 -19 -2 -12 -5z"/>
<path d="M5610 940 c-18 -6 -3 -8 50 -9 41 -1 246 -12 455 -26 452 -30 657
-33 810 -9 61 9 202 19 315 23 l205 6 -171 8 c-94 4 -190 5 -215 2 -24 -3
-105 -12 -179 -21 -157 -19 -329 -16 -805 16 -315 21 -424 23 -465 10z"/>
<path d="M7493 913 c20 -2 54 -2 75 0 20 2 3 4 -38 4 -41 0 -58 -2 -37 -4z"/>
<path d="M8058 913 c12 -2 30 -2 40 0 9 3 -1 5 -23 4 -22 0 -30 -2 -17 -4z"/>
<path d="M7792 903 c37 -2 100 -2 140 0 40 1 10 3 -67 3 -77 0 -110 -1 -73 -3z"/>
</g>
</svg>
